<mxfile host="app.diagrams.net" modified="2021-10-07T01:46:51.198Z" agent="5.0 (Windows NT 10.0; Win64; x64) AppleWebKit/537.36 (KHTML, like Gecko) Chrome/92.0.4515.107 Safari/537.36" etag="u-jErFneXmLLq7t-tJ87" version="15.4.3" type="github" pages="3">
  <diagram id="lW1YxPfkAH3Dj3aIrs9M" name="Page-1">
    <mxGraphModel dx="1353" dy="737" grid="1" gridSize="10" guides="1" tooltips="1" connect="1" arrows="1" fold="1" page="1" pageScale="1" pageWidth="827" pageHeight="1169" math="0" shadow="0">
      <root>
        <mxCell id="0" />
        <mxCell id="1" parent="0" />
        <mxCell id="qO23w4fIbwavAa15gbbD-1" value="" style="rounded=0;whiteSpace=wrap;html=1;" vertex="1" parent="1">
          <mxGeometry width="800" height="100" as="geometry" />
        </mxCell>
        <mxCell id="qO23w4fIbwavAa15gbbD-3" value="Buscador" style="rounded=0;whiteSpace=wrap;html=1;" vertex="1" parent="1">
          <mxGeometry x="203.25" y="10" width="360" height="30" as="geometry" />
        </mxCell>
        <mxCell id="qO23w4fIbwavAa15gbbD-4" value="" style="shape=internalStorage;whiteSpace=wrap;html=1;backgroundOutline=1;" vertex="1" parent="1">
          <mxGeometry x="49" y="10" width="80" height="60" as="geometry" />
        </mxCell>
        <UserObject label="Categorias" treeRoot="1" id="qO23w4fIbwavAa15gbbD-9">
          <mxCell style="whiteSpace=wrap;html=1;align=center;treeFolding=1;treeMoving=1;newEdgeStyle={&quot;edgeStyle&quot;:&quot;elbowEdgeStyle&quot;,&quot;startArrow&quot;:&quot;none&quot;,&quot;endArrow&quot;:&quot;none&quot;};" vertex="1" parent="1">
            <mxGeometry x="180" y="50" width="110" height="20" as="geometry" />
          </mxCell>
        </UserObject>
        <UserObject label="Ingresar" treeRoot="1" id="qO23w4fIbwavAa15gbbD-11">
          <mxCell style="whiteSpace=wrap;html=1;align=center;treeFolding=1;treeMoving=1;newEdgeStyle={&quot;edgeStyle&quot;:&quot;elbowEdgeStyle&quot;,&quot;startArrow&quot;:&quot;none&quot;,&quot;endArrow&quot;:&quot;none&quot;};" vertex="1" parent="1">
            <mxGeometry x="660" y="20" width="100" height="20" as="geometry" />
          </mxCell>
        </UserObject>
        <mxCell id="qO23w4fIbwavAa15gbbD-12" value="" style="ellipse;whiteSpace=wrap;html=1;aspect=fixed;" vertex="1" parent="1">
          <mxGeometry x="573.5" y="15" width="20" height="20" as="geometry" />
        </mxCell>
        <mxCell id="qO23w4fIbwavAa15gbbD-13" value="" style="shape=internalStorage;whiteSpace=wrap;html=1;backgroundOutline=1;" vertex="1" parent="1">
          <mxGeometry x="78.5" y="200" width="691.5" height="200" as="geometry" />
        </mxCell>
        <UserObject label="Servicios" treeRoot="1" id="qO23w4fIbwavAa15gbbD-21">
          <mxCell style="whiteSpace=wrap;html=1;align=center;treeFolding=1;treeMoving=1;newEdgeStyle={&quot;edgeStyle&quot;:&quot;elbowEdgeStyle&quot;,&quot;startArrow&quot;:&quot;none&quot;,&quot;endArrow&quot;:&quot;none&quot;};" vertex="1" parent="1">
            <mxGeometry x="79" y="360" width="691" height="40" as="geometry" />
          </mxCell>
        </UserObject>
        <UserObject label="Categorias Comunes" treeRoot="1" id="qO23w4fIbwavAa15gbbD-23">
          <mxCell style="whiteSpace=wrap;html=1;align=center;treeFolding=1;treeMoving=1;newEdgeStyle={&quot;edgeStyle&quot;:&quot;elbowEdgeStyle&quot;,&quot;startArrow&quot;:&quot;none&quot;,&quot;endArrow&quot;:&quot;none&quot;};" vertex="1" parent="1">
            <mxGeometry x="229.5" y="500" width="321" height="60" as="geometry" />
          </mxCell>
        </UserObject>
        <mxCell id="qO23w4fIbwavAa15gbbD-73" value="" style="shape=waypoint;sketch=0;fillStyle=solid;size=6;pointerEvents=1;points=[];fillColor=none;resizable=0;rotatable=0;perimeter=centerPerimeter;snapToPoint=1;" vertex="1" parent="1">
          <mxGeometry x="195.25" y="566" width="40" height="40" as="geometry" />
        </mxCell>
        <mxCell id="qO23w4fIbwavAa15gbbD-74" value="Text" style="text;html=1;strokeColor=none;fillColor=none;align=center;verticalAlign=middle;whiteSpace=wrap;rounded=0;" vertex="1" parent="1">
          <mxGeometry x="191.75" y="602" width="100" height="30" as="geometry" />
        </mxCell>
        <mxCell id="qO23w4fIbwavAa15gbbD-75" value="" style="shape=waypoint;sketch=0;fillStyle=solid;size=6;pointerEvents=1;points=[];fillColor=none;resizable=0;rotatable=0;perimeter=centerPerimeter;snapToPoint=1;" vertex="1" parent="1">
          <mxGeometry x="195.25" y="600" width="40" height="40" as="geometry" />
        </mxCell>
        <mxCell id="qO23w4fIbwavAa15gbbD-76" value="Electricidad" style="text;html=1;strokeColor=none;fillColor=none;align=center;verticalAlign=middle;whiteSpace=wrap;rounded=0;" vertex="1" parent="1">
          <mxGeometry x="79.75" y="569" width="100" height="30" as="geometry" />
        </mxCell>
        <mxCell id="qO23w4fIbwavAa15gbbD-77" value="" style="shape=waypoint;sketch=0;fillStyle=solid;size=6;pointerEvents=1;points=[];fillColor=none;resizable=0;rotatable=0;perimeter=centerPerimeter;snapToPoint=1;" vertex="1" parent="1">
          <mxGeometry x="61.75" y="564" width="40" height="40" as="geometry" />
        </mxCell>
        <mxCell id="qO23w4fIbwavAa15gbbD-78" value="" style="shape=waypoint;sketch=0;fillStyle=solid;size=6;pointerEvents=1;points=[];fillColor=none;resizable=0;rotatable=0;perimeter=centerPerimeter;snapToPoint=1;" vertex="1" parent="1">
          <mxGeometry x="61.75" y="598" width="40" height="40" as="geometry" />
        </mxCell>
        <mxCell id="qO23w4fIbwavAa15gbbD-79" value="Plomeria" style="text;html=1;strokeColor=none;fillColor=none;align=center;verticalAlign=middle;whiteSpace=wrap;rounded=0;" vertex="1" parent="1">
          <mxGeometry x="72.75" y="602" width="100" height="38" as="geometry" />
        </mxCell>
        <mxCell id="qO23w4fIbwavAa15gbbD-80" value="Gas" style="text;html=1;strokeColor=none;fillColor=none;align=center;verticalAlign=middle;whiteSpace=wrap;rounded=0;" vertex="1" parent="1">
          <mxGeometry x="191.75" y="572" width="100" height="30" as="geometry" />
        </mxCell>
        <mxCell id="qO23w4fIbwavAa15gbbD-89" value="" style="shape=internalStorage;whiteSpace=wrap;html=1;backgroundOutline=1;" vertex="1" parent="1">
          <mxGeometry x="29" y="680" width="770" height="230" as="geometry" />
        </mxCell>
        <mxCell id="qO23w4fIbwavAa15gbbD-90" value="&lt;font style=&quot;font-size: 28px&quot;&gt;La soluciÃ³n que buscas,&lt;br&gt;con el profesionalismo que necesitas&lt;br&gt;&lt;br&gt;&lt;/font&gt;" style="text;html=1;strokeColor=none;fillColor=none;align=center;verticalAlign=middle;whiteSpace=wrap;rounded=0;strokeWidth=4;" vertex="1" parent="1">
          <mxGeometry x="160" y="140" width="500" height="30" as="geometry" />
        </mxCell>
        <mxCell id="qO23w4fIbwavAa15gbbD-91" value="publicidad" style="text;html=1;strokeColor=none;fillColor=none;align=center;verticalAlign=middle;whiteSpace=wrap;rounded=0;fontSize=28;" vertex="1" parent="1">
          <mxGeometry x="373.5" y="780" width="60" height="30" as="geometry" />
        </mxCell>
        <mxCell id="qO23w4fIbwavAa15gbbD-92" value="" style="shape=internalStorage;whiteSpace=wrap;html=1;backgroundOutline=1;" vertex="1" parent="1">
          <mxGeometry x="29" y="930" width="771" height="150" as="geometry" />
        </mxCell>
        <mxCell id="qO23w4fIbwavAa15gbbD-94" value="empresas que confiaron en nosotros(logos)" style="text;html=1;strokeColor=none;fillColor=none;align=center;verticalAlign=middle;whiteSpace=wrap;rounded=0;fontSize=28;" vertex="1" parent="1">
          <mxGeometry x="120" y="1000" width="600" height="30" as="geometry" />
        </mxCell>
        <mxCell id="qO23w4fIbwavAa15gbbD-96" style="edgeStyle=orthogonalEdgeStyle;rounded=0;orthogonalLoop=1;jettySize=auto;html=1;exitX=0.5;exitY=1;exitDx=0;exitDy=0;fontSize=28;" edge="1" parent="1" source="qO23w4fIbwavAa15gbbD-11" target="qO23w4fIbwavAa15gbbD-11">
          <mxGeometry relative="1" as="geometry" />
        </mxCell>
        <mxCell id="qO23w4fIbwavAa15gbbD-101" value="" style="rounded=0;whiteSpace=wrap;html=1;fontSize=10;strokeWidth=1;" vertex="1" parent="1">
          <mxGeometry x="650" y="45" width="120" height="30" as="geometry" />
        </mxCell>
        <mxCell id="qO23w4fIbwavAa15gbbD-102" value="carrito" style="text;html=1;strokeColor=none;fillColor=none;align=center;verticalAlign=middle;whiteSpace=wrap;rounded=0;fontSize=10;" vertex="1" parent="1">
          <mxGeometry x="680" y="45" width="60" height="30" as="geometry" />
        </mxCell>
        <mxCell id="qO23w4fIbwavAa15gbbD-103" value="" style="rounded=0;whiteSpace=wrap;html=1;fontSize=10;strokeWidth=1;" vertex="1" parent="1">
          <mxGeometry x="29" y="1166" width="771" height="60" as="geometry" />
        </mxCell>
        <mxCell id="qO23w4fIbwavAa15gbbD-104" value="" style="rounded=0;whiteSpace=wrap;html=1;fontSize=10;strokeWidth=1;" vertex="1" parent="1">
          <mxGeometry x="78.5" y="410" width="691.5" height="30" as="geometry" />
        </mxCell>
        <mxCell id="qO23w4fIbwavAa15gbbD-106" value="Sumate a nuestro equipo de Profesionales" style="text;html=1;strokeColor=none;fillColor=none;align=center;verticalAlign=middle;whiteSpace=wrap;rounded=0;fontSize=10;" vertex="1" parent="1">
          <mxGeometry x="110" y="411" width="650" height="30" as="geometry" />
        </mxCell>
        <mxCell id="qO23w4fIbwavAa15gbbD-108" value="" style="shape=waypoint;sketch=0;fillStyle=solid;size=6;pointerEvents=1;points=[];fillColor=none;resizable=0;rotatable=0;perimeter=centerPerimeter;snapToPoint=1;" vertex="1" parent="1">
          <mxGeometry x="416.75" y="571" width="40" height="40" as="geometry" />
        </mxCell>
        <mxCell id="qO23w4fIbwavAa15gbbD-109" value="Text" style="text;html=1;strokeColor=none;fillColor=none;align=center;verticalAlign=middle;whiteSpace=wrap;rounded=0;" vertex="1" parent="1">
          <mxGeometry x="413.25" y="607" width="100" height="30" as="geometry" />
        </mxCell>
        <mxCell id="qO23w4fIbwavAa15gbbD-110" value="" style="shape=waypoint;sketch=0;fillStyle=solid;size=6;pointerEvents=1;points=[];fillColor=none;resizable=0;rotatable=0;perimeter=centerPerimeter;snapToPoint=1;" vertex="1" parent="1">
          <mxGeometry x="416.75" y="605" width="40" height="40" as="geometry" />
        </mxCell>
        <mxCell id="qO23w4fIbwavAa15gbbD-111" value="Electricidad" style="text;html=1;strokeColor=none;fillColor=none;align=center;verticalAlign=middle;whiteSpace=wrap;rounded=0;" vertex="1" parent="1">
          <mxGeometry x="301.25" y="574" width="100" height="30" as="geometry" />
        </mxCell>
        <mxCell id="qO23w4fIbwavAa15gbbD-112" value="" style="shape=waypoint;sketch=0;fillStyle=solid;size=6;pointerEvents=1;points=[];fillColor=none;resizable=0;rotatable=0;perimeter=centerPerimeter;snapToPoint=1;" vertex="1" parent="1">
          <mxGeometry x="283.25" y="569" width="40" height="40" as="geometry" />
        </mxCell>
        <mxCell id="qO23w4fIbwavAa15gbbD-113" value="" style="shape=waypoint;sketch=0;fillStyle=solid;size=6;pointerEvents=1;points=[];fillColor=none;resizable=0;rotatable=0;perimeter=centerPerimeter;snapToPoint=1;" vertex="1" parent="1">
          <mxGeometry x="283.25" y="603" width="40" height="40" as="geometry" />
        </mxCell>
        <mxCell id="qO23w4fIbwavAa15gbbD-114" value="Plomeria" style="text;html=1;strokeColor=none;fillColor=none;align=center;verticalAlign=middle;whiteSpace=wrap;rounded=0;" vertex="1" parent="1">
          <mxGeometry x="294.25" y="607" width="100" height="38" as="geometry" />
        </mxCell>
        <mxCell id="qO23w4fIbwavAa15gbbD-115" value="Gas" style="text;html=1;strokeColor=none;fillColor=none;align=center;verticalAlign=middle;whiteSpace=wrap;rounded=0;" vertex="1" parent="1">
          <mxGeometry x="413.25" y="577" width="100" height="30" as="geometry" />
        </mxCell>
        <mxCell id="qO23w4fIbwavAa15gbbD-116" value="Text" style="text;html=1;strokeColor=none;fillColor=none;align=center;verticalAlign=middle;whiteSpace=wrap;rounded=0;" vertex="1" parent="1">
          <mxGeometry x="516.75" y="577" width="100" height="30" as="geometry" />
        </mxCell>
        <mxCell id="qO23w4fIbwavAa15gbbD-117" value="" style="shape=waypoint;sketch=0;fillStyle=solid;size=6;pointerEvents=1;points=[];fillColor=none;resizable=0;rotatable=0;perimeter=centerPerimeter;snapToPoint=1;" vertex="1" parent="1">
          <mxGeometry x="516.75" y="574" width="40" height="40" as="geometry" />
        </mxCell>
        <mxCell id="qO23w4fIbwavAa15gbbD-118" value="" style="shape=waypoint;sketch=0;fillStyle=solid;size=6;pointerEvents=1;points=[];fillColor=none;resizable=0;rotatable=0;perimeter=centerPerimeter;snapToPoint=1;" vertex="1" parent="1">
          <mxGeometry x="593.5" y="572" width="40" height="40" as="geometry" />
        </mxCell>
        <mxCell id="qO23w4fIbwavAa15gbbD-119" value="Text" style="text;html=1;strokeColor=none;fillColor=none;align=center;verticalAlign=middle;whiteSpace=wrap;rounded=0;" vertex="1" parent="1">
          <mxGeometry x="590" y="608" width="100" height="30" as="geometry" />
        </mxCell>
        <mxCell id="qO23w4fIbwavAa15gbbD-120" value="Gas" style="text;html=1;strokeColor=none;fillColor=none;align=center;verticalAlign=middle;whiteSpace=wrap;rounded=0;" vertex="1" parent="1">
          <mxGeometry x="590" y="578" width="100" height="30" as="geometry" />
        </mxCell>
        <mxCell id="qO23w4fIbwavAa15gbbD-121" value="" style="shape=waypoint;sketch=0;fillStyle=solid;size=6;pointerEvents=1;points=[];fillColor=none;resizable=0;rotatable=0;perimeter=centerPerimeter;snapToPoint=1;" vertex="1" parent="1">
          <mxGeometry x="516.75" y="605" width="40" height="40" as="geometry" />
        </mxCell>
        <mxCell id="qO23w4fIbwavAa15gbbD-122" value="Text" style="text;html=1;strokeColor=none;fillColor=none;align=center;verticalAlign=middle;whiteSpace=wrap;rounded=0;" vertex="1" parent="1">
          <mxGeometry x="516.75" y="605" width="100" height="30" as="geometry" />
        </mxCell>
        <mxCell id="qO23w4fIbwavAa15gbbD-123" value="" style="shape=waypoint;sketch=0;fillStyle=solid;size=6;pointerEvents=1;points=[];fillColor=none;resizable=0;rotatable=0;perimeter=centerPerimeter;snapToPoint=1;" vertex="1" parent="1">
          <mxGeometry x="590" y="605" width="40" height="40" as="geometry" />
        </mxCell>
        <mxCell id="qO23w4fIbwavAa15gbbD-124" value="atencion al cliente" style="text;html=1;strokeColor=none;fillColor=none;align=center;verticalAlign=middle;whiteSpace=wrap;rounded=0;fontSize=10;" vertex="1" parent="1">
          <mxGeometry x="61.75" y="1166" width="110" height="30" as="geometry" />
        </mxCell>
        <mxCell id="qO23w4fIbwavAa15gbbD-125" value="terminos y condiciones" style="text;html=1;strokeColor=none;fillColor=none;align=center;verticalAlign=middle;whiteSpace=wrap;rounded=0;fontSize=10;" vertex="1" parent="1">
          <mxGeometry x="245" y="1166" width="116.5" height="30" as="geometry" />
        </mxCell>
        <mxCell id="qO23w4fIbwavAa15gbbD-126" value="ayuda" style="text;html=1;strokeColor=none;fillColor=none;align=center;verticalAlign=middle;whiteSpace=wrap;rounded=0;fontSize=10;" vertex="1" parent="1">
          <mxGeometry x="443.75" y="1166" width="116.5" height="30" as="geometry" />
        </mxCell>
        <mxCell id="qO23w4fIbwavAa15gbbD-127" value="&lt;span style=&quot;font-family: &amp;#34;raleway&amp;#34; , sans-serif ; font-size: 12px ; letter-spacing: 0.88px ; text-transform: uppercase ; background-color: rgb(255 , 255 , 255)&quot;&gt;COPYRIGHT Â© 2021&lt;/span&gt;" style="text;html=1;strokeColor=none;fillColor=none;align=center;verticalAlign=middle;whiteSpace=wrap;rounded=0;fontSize=10;" vertex="1" parent="1">
          <mxGeometry x="260" y="1196" width="310" height="30" as="geometry" />
        </mxCell>
        <mxCell id="qO23w4fIbwavAa15gbbD-134" value="" style="shape=waypoint;sketch=0;fillStyle=solid;size=6;pointerEvents=1;points=[];fillColor=none;resizable=0;rotatable=0;perimeter=centerPerimeter;snapToPoint=1;fontSize=10;fontColor=#000000;strokeWidth=1;" vertex="1" parent="1">
          <mxGeometry x="363.25" y="820" width="40" height="40" as="geometry" />
        </mxCell>
        <mxCell id="qO23w4fIbwavAa15gbbD-135" value="" style="shape=waypoint;sketch=0;fillStyle=solid;size=6;pointerEvents=1;points=[];fillColor=none;resizable=0;rotatable=0;perimeter=centerPerimeter;snapToPoint=1;fontSize=10;fontColor=#000000;strokeWidth=1;" vertex="1" parent="1">
          <mxGeometry x="383.25" y="820" width="40" height="40" as="geometry" />
        </mxCell>
        <mxCell id="qO23w4fIbwavAa15gbbD-136" value="" style="shape=waypoint;sketch=0;fillStyle=solid;size=6;pointerEvents=1;points=[];fillColor=none;resizable=0;rotatable=0;perimeter=centerPerimeter;snapToPoint=1;fontSize=10;fontColor=#000000;strokeWidth=1;" vertex="1" parent="1">
          <mxGeometry x="403.75" y="820" width="40" height="40" as="geometry" />
        </mxCell>
        <mxCell id="qO23w4fIbwavAa15gbbD-137" value="" style="shape=waypoint;sketch=0;fillStyle=solid;size=6;pointerEvents=1;points=[];fillColor=none;resizable=0;rotatable=0;perimeter=centerPerimeter;snapToPoint=1;fontSize=10;fontColor=#000000;strokeWidth=1;" vertex="1" parent="1">
          <mxGeometry x="374.25" y="1030" width="40" height="40" as="geometry" />
        </mxCell>
        <mxCell id="qO23w4fIbwavAa15gbbD-138" value="" style="shape=waypoint;sketch=0;fillStyle=solid;size=6;pointerEvents=1;points=[];fillColor=none;resizable=0;rotatable=0;perimeter=centerPerimeter;snapToPoint=1;fontSize=10;fontColor=#000000;strokeWidth=1;" vertex="1" parent="1">
          <mxGeometry x="394.25" y="1030" width="40" height="40" as="geometry" />
        </mxCell>
        <mxCell id="qO23w4fIbwavAa15gbbD-139" value="" style="shape=waypoint;sketch=0;fillStyle=solid;size=6;pointerEvents=1;points=[];fillColor=none;resizable=0;rotatable=0;perimeter=centerPerimeter;snapToPoint=1;fontSize=10;fontColor=#000000;strokeWidth=1;" vertex="1" parent="1">
          <mxGeometry x="414.75" y="1030" width="40" height="40" as="geometry" />
        </mxCell>
        <mxCell id="qO23w4fIbwavAa15gbbD-143" value="" style="dashed=0;outlineConnect=0;html=1;align=center;labelPosition=center;verticalLabelPosition=bottom;verticalAlign=top;shape=mxgraph.weblogos.youtube_2;fillColor=#FF2626;gradientColor=#B5171F;fontSize=10;fontColor=#000000;strokeWidth=1;" vertex="1" parent="1">
          <mxGeometry x="780" y="114.9" width="16.4" height="12.6" as="geometry" />
        </mxCell>
        <mxCell id="qO23w4fIbwavAa15gbbD-144" value="" style="dashed=0;outlineConnect=0;html=1;align=center;labelPosition=center;verticalLabelPosition=bottom;verticalAlign=top;shape=mxgraph.weblogos.twitter;fillColor=#1DA1F2;strokeColor=none;fontSize=10;fontColor=#000000;" vertex="1" parent="1">
          <mxGeometry x="750" y="111.30000000000001" width="20" height="20" as="geometry" />
        </mxCell>
        <mxCell id="qO23w4fIbwavAa15gbbD-145" value="" style="dashed=0;outlineConnect=0;html=1;align=center;labelPosition=center;verticalLabelPosition=bottom;verticalAlign=top;shape=mxgraph.weblogos.instagram;fillColor=#6FC0E4;gradientColor=#1E305B;fontSize=10;fontColor=#000000;strokeWidth=1;" vertex="1" parent="1">
          <mxGeometry x="717.8" y="110.20000000000002" width="22.2" height="22.2" as="geometry" />
        </mxCell>
        <mxCell id="qO23w4fIbwavAa15gbbD-146" value="" style="dashed=0;outlineConnect=0;html=1;align=center;labelPosition=center;verticalLabelPosition=bottom;verticalAlign=top;shape=mxgraph.webicons.facebook;fillColor=#6294E4;gradientColor=#1A2665;fontSize=10;fontColor=#000000;strokeWidth=1;" vertex="1" parent="1">
          <mxGeometry x="680.5500000000001" y="110.00000000000003" width="22.4" height="22.4" as="geometry" />
        </mxCell>
        <mxCell id="qO23w4fIbwavAa15gbbD-147" value="" style="dashed=0;outlineConnect=0;html=1;align=center;labelPosition=center;verticalLabelPosition=bottom;verticalAlign=top;shape=mxgraph.webicons.gmail;gradientColor=#DFDEDE;fontSize=10;fontColor=#000000;strokeWidth=1;" vertex="1" parent="1">
          <mxGeometry x="56.10000000000001" y="75" width="22.4" height="22.4" as="geometry" />
        </mxCell>
        <mxCell id="qO23w4fIbwavAa15gbbD-148" value="contacto" style="text;html=1;strokeColor=none;fillColor=none;align=center;verticalAlign=middle;whiteSpace=wrap;rounded=0;fontSize=10;" vertex="1" parent="1">
          <mxGeometry x="633.5" y="1166" width="116.5" height="30" as="geometry" />
        </mxCell>
        <mxCell id="qO23w4fIbwavAa15gbbD-149" value="" style="dashed=0;outlineConnect=0;html=1;align=center;labelPosition=center;verticalLabelPosition=bottom;verticalAlign=top;shape=mxgraph.webicons.whatsapp;fillColor=#4FE238;gradientColor=#138709;fontSize=10;fontColor=#000000;strokeWidth=1;" vertex="1" parent="1">
          <mxGeometry x="97.60000000000002" y="75.00000000000003" width="22.4" height="22.4" as="geometry" />
        </mxCell>
        <mxCell id="8LR7zrBz_CfeQu4b0L-g-1" value="" style="verticalLabelPosition=bottom;verticalAlign=top;html=1;shape=mxgraph.flowchart.parallel_mode;pointerEvents=1;fontSize=16;fontColor=#000000;strokeWidth=1;" vertex="1" parent="1">
          <mxGeometry x="363.25" y="270" width="95" height="40" as="geometry" />
        </mxCell>
        <mxCell id="8LR7zrBz_CfeQu4b0L-g-2" value="" style="verticalLabelPosition=bottom;verticalAlign=top;html=1;shape=mxgraph.flowchart.parallel_mode;pointerEvents=1;fontSize=16;fontColor=#000000;strokeWidth=1;" vertex="1" parent="1">
          <mxGeometry x="355.75" y="820" width="95" height="40" as="geometry" />
        </mxCell>
        <mxCell id="8LR7zrBz_CfeQu4b0L-g-3" value="" style="verticalLabelPosition=bottom;verticalAlign=top;html=1;shape=mxgraph.flowchart.parallel_mode;pointerEvents=1;fontSize=16;fontColor=#000000;strokeWidth=1;" vertex="1" parent="1">
          <mxGeometry x="367.5" y="1030" width="95" height="40" as="geometry" />
        </mxCell>
        <mxCell id="snZKBpyY86nWICw4faWr-1" value="" style="rounded=0;whiteSpace=wrap;html=1;fontSize=16;fontColor=#000000;strokeWidth=1;" vertex="1" parent="1">
          <mxGeometry x="30" y="1090" width="770" height="60" as="geometry" />
        </mxCell>
        <mxCell id="snZKBpyY86nWICw4faWr-2" value="Servicios para empresas y Pymes" style="text;html=1;strokeColor=none;fillColor=none;align=center;verticalAlign=middle;whiteSpace=wrap;rounded=0;fontSize=16;fontColor=#000000;" vertex="1" parent="1">
          <mxGeometry x="78.5" y="1100" width="631.5" height="30" as="geometry" />
        </mxCell>
      </root>
    </mxGraphModel>
  </diagram>
  <diagram name="detalleDeProducto" id="Nvq8hkhTAsJNFpKTfE6z">
    <mxGraphModel dx="2180" dy="737" grid="1" gridSize="10" guides="1" tooltips="1" connect="1" arrows="1" fold="1" page="1" pageScale="1" pageWidth="827" pageHeight="1169" math="0" shadow="0">
      <root>
        <mxCell id="kYM8DjDP68Plctf1Hpr4-0" />
        <mxCell id="kYM8DjDP68Plctf1Hpr4-1" parent="kYM8DjDP68Plctf1Hpr4-0" />
        <mxCell id="moNcnZf670vWW47aLsmv-2" value="" style="rounded=0;whiteSpace=wrap;html=1;fontSize=26;fontColor=#000000;strokeWidth=1;" vertex="1" parent="kYM8DjDP68Plctf1Hpr4-1">
          <mxGeometry x="317.81" y="370" width="480" height="80" as="geometry" />
        </mxCell>
        <mxCell id="kYM8DjDP68Plctf1Hpr4-2" value="" style="rounded=0;whiteSpace=wrap;html=1;" vertex="1" parent="kYM8DjDP68Plctf1Hpr4-1">
          <mxGeometry width="800" height="100" as="geometry" />
        </mxCell>
        <mxCell id="kYM8DjDP68Plctf1Hpr4-3" value="Buscador" style="rounded=0;whiteSpace=wrap;html=1;" vertex="1" parent="kYM8DjDP68Plctf1Hpr4-1">
          <mxGeometry x="203.25" y="10" width="360" height="30" as="geometry" />
        </mxCell>
        <mxCell id="kYM8DjDP68Plctf1Hpr4-4" value="" style="shape=internalStorage;whiteSpace=wrap;html=1;backgroundOutline=1;" vertex="1" parent="kYM8DjDP68Plctf1Hpr4-1">
          <mxGeometry x="49" y="10" width="80" height="60" as="geometry" />
        </mxCell>
        <UserObject label="Categorias" treeRoot="1" id="kYM8DjDP68Plctf1Hpr4-5">
          <mxCell style="whiteSpace=wrap;html=1;align=center;treeFolding=1;treeMoving=1;newEdgeStyle={&quot;edgeStyle&quot;:&quot;elbowEdgeStyle&quot;,&quot;startArrow&quot;:&quot;none&quot;,&quot;endArrow&quot;:&quot;none&quot;};" vertex="1" parent="kYM8DjDP68Plctf1Hpr4-1">
            <mxGeometry x="180" y="50" width="110" height="20" as="geometry" />
          </mxCell>
        </UserObject>
        <UserObject label="Ingresar" treeRoot="1" id="kYM8DjDP68Plctf1Hpr4-6">
          <mxCell style="whiteSpace=wrap;html=1;align=center;treeFolding=1;treeMoving=1;newEdgeStyle={&quot;edgeStyle&quot;:&quot;elbowEdgeStyle&quot;,&quot;startArrow&quot;:&quot;none&quot;,&quot;endArrow&quot;:&quot;none&quot;};" vertex="1" parent="kYM8DjDP68Plctf1Hpr4-1">
            <mxGeometry x="660" y="20" width="100" height="20" as="geometry" />
          </mxCell>
        </UserObject>
        <mxCell id="kYM8DjDP68Plctf1Hpr4-7" value="" style="ellipse;whiteSpace=wrap;html=1;aspect=fixed;" vertex="1" parent="kYM8DjDP68Plctf1Hpr4-1">
          <mxGeometry x="573.5" y="15" width="20" height="20" as="geometry" />
        </mxCell>
        <UserObject label="Tambien te puede interesar" treeRoot="1" id="kYM8DjDP68Plctf1Hpr4-12">
          <mxCell style="whiteSpace=wrap;html=1;align=center;treeFolding=1;treeMoving=1;newEdgeStyle={&quot;edgeStyle&quot;:&quot;elbowEdgeStyle&quot;,&quot;startArrow&quot;:&quot;none&quot;,&quot;endArrow&quot;:&quot;none&quot;};" vertex="1" parent="kYM8DjDP68Plctf1Hpr4-1">
            <mxGeometry x="265.35" y="690" width="321" height="60" as="geometry" />
          </mxCell>
        </UserObject>
        <mxCell id="kYM8DjDP68Plctf1Hpr4-13" value="" style="shape=waypoint;sketch=0;fillStyle=solid;size=6;pointerEvents=1;points=[];fillColor=none;resizable=0;rotatable=0;perimeter=centerPerimeter;snapToPoint=1;" vertex="1" parent="kYM8DjDP68Plctf1Hpr4-1">
          <mxGeometry x="231.1" y="756" width="40" height="40" as="geometry" />
        </mxCell>
        <mxCell id="kYM8DjDP68Plctf1Hpr4-14" value="Text" style="text;html=1;strokeColor=none;fillColor=none;align=center;verticalAlign=middle;whiteSpace=wrap;rounded=0;" vertex="1" parent="kYM8DjDP68Plctf1Hpr4-1">
          <mxGeometry x="227.6" y="792" width="100" height="30" as="geometry" />
        </mxCell>
        <mxCell id="kYM8DjDP68Plctf1Hpr4-15" value="" style="shape=waypoint;sketch=0;fillStyle=solid;size=6;pointerEvents=1;points=[];fillColor=none;resizable=0;rotatable=0;perimeter=centerPerimeter;snapToPoint=1;" vertex="1" parent="kYM8DjDP68Plctf1Hpr4-1">
          <mxGeometry x="231.1" y="790" width="40" height="40" as="geometry" />
        </mxCell>
        <mxCell id="kYM8DjDP68Plctf1Hpr4-16" value="Electricidad" style="text;html=1;strokeColor=none;fillColor=none;align=center;verticalAlign=middle;whiteSpace=wrap;rounded=0;" vertex="1" parent="kYM8DjDP68Plctf1Hpr4-1">
          <mxGeometry x="115.6" y="759" width="100" height="30" as="geometry" />
        </mxCell>
        <mxCell id="kYM8DjDP68Plctf1Hpr4-17" value="" style="shape=waypoint;sketch=0;fillStyle=solid;size=6;pointerEvents=1;points=[];fillColor=none;resizable=0;rotatable=0;perimeter=centerPerimeter;snapToPoint=1;" vertex="1" parent="kYM8DjDP68Plctf1Hpr4-1">
          <mxGeometry x="97.6" y="754" width="40" height="40" as="geometry" />
        </mxCell>
        <mxCell id="kYM8DjDP68Plctf1Hpr4-18" value="" style="shape=waypoint;sketch=0;fillStyle=solid;size=6;pointerEvents=1;points=[];fillColor=none;resizable=0;rotatable=0;perimeter=centerPerimeter;snapToPoint=1;" vertex="1" parent="kYM8DjDP68Plctf1Hpr4-1">
          <mxGeometry x="97.6" y="788" width="40" height="40" as="geometry" />
        </mxCell>
        <mxCell id="kYM8DjDP68Plctf1Hpr4-19" value="Plomeria" style="text;html=1;strokeColor=none;fillColor=none;align=center;verticalAlign=middle;whiteSpace=wrap;rounded=0;" vertex="1" parent="kYM8DjDP68Plctf1Hpr4-1">
          <mxGeometry x="108.6" y="792" width="100" height="38" as="geometry" />
        </mxCell>
        <mxCell id="kYM8DjDP68Plctf1Hpr4-20" value="Gas" style="text;html=1;strokeColor=none;fillColor=none;align=center;verticalAlign=middle;whiteSpace=wrap;rounded=0;" vertex="1" parent="kYM8DjDP68Plctf1Hpr4-1">
          <mxGeometry x="227.6" y="762" width="100" height="30" as="geometry" />
        </mxCell>
        <mxCell id="kYM8DjDP68Plctf1Hpr4-21" value="" style="shape=internalStorage;whiteSpace=wrap;html=1;backgroundOutline=1;" vertex="1" parent="kYM8DjDP68Plctf1Hpr4-1">
          <mxGeometry x="30" y="850" width="770" height="230" as="geometry" />
        </mxCell>
        <mxCell id="kYM8DjDP68Plctf1Hpr4-22" value="&lt;font style=&quot;font-size: 19px&quot;&gt;La soluciÃ³n que buscas,&lt;br&gt;con el profesionalismo que necesitas&lt;br&gt;&lt;br&gt;&lt;/font&gt;" style="text;html=1;strokeColor=none;fillColor=none;align=center;verticalAlign=middle;whiteSpace=wrap;rounded=0;strokeWidth=4;" vertex="1" parent="kYM8DjDP68Plctf1Hpr4-1">
          <mxGeometry x="100" y="140" width="560" height="30" as="geometry" />
        </mxCell>
        <mxCell id="kYM8DjDP68Plctf1Hpr4-23" value="publicidad" style="text;html=1;strokeColor=none;fillColor=none;align=center;verticalAlign=middle;whiteSpace=wrap;rounded=0;fontSize=28;" vertex="1" parent="kYM8DjDP68Plctf1Hpr4-1">
          <mxGeometry x="374.5" y="950" width="60" height="30" as="geometry" />
        </mxCell>
        <mxCell id="kYM8DjDP68Plctf1Hpr4-26" style="edgeStyle=orthogonalEdgeStyle;rounded=0;orthogonalLoop=1;jettySize=auto;html=1;exitX=0.5;exitY=1;exitDx=0;exitDy=0;fontSize=28;" edge="1" parent="kYM8DjDP68Plctf1Hpr4-1" source="kYM8DjDP68Plctf1Hpr4-6" target="kYM8DjDP68Plctf1Hpr4-6">
          <mxGeometry relative="1" as="geometry" />
        </mxCell>
        <mxCell id="kYM8DjDP68Plctf1Hpr4-27" value="" style="rounded=0;whiteSpace=wrap;html=1;fontSize=10;strokeWidth=1;" vertex="1" parent="kYM8DjDP68Plctf1Hpr4-1">
          <mxGeometry x="650" y="45" width="120" height="30" as="geometry" />
        </mxCell>
        <mxCell id="kYM8DjDP68Plctf1Hpr4-28" value="carrito" style="text;html=1;strokeColor=none;fillColor=none;align=center;verticalAlign=middle;whiteSpace=wrap;rounded=0;fontSize=10;" vertex="1" parent="kYM8DjDP68Plctf1Hpr4-1">
          <mxGeometry x="680" y="45" width="60" height="30" as="geometry" />
        </mxCell>
        <mxCell id="kYM8DjDP68Plctf1Hpr4-29" value="" style="rounded=0;whiteSpace=wrap;html=1;fontSize=10;strokeWidth=1;" vertex="1" parent="kYM8DjDP68Plctf1Hpr4-1">
          <mxGeometry x="29" y="1100" width="771" height="60" as="geometry" />
        </mxCell>
        <mxCell id="kYM8DjDP68Plctf1Hpr4-34" value="" style="shape=waypoint;sketch=0;fillStyle=solid;size=6;pointerEvents=1;points=[];fillColor=none;resizable=0;rotatable=0;perimeter=centerPerimeter;snapToPoint=1;" vertex="1" parent="kYM8DjDP68Plctf1Hpr4-1">
          <mxGeometry x="452.6" y="761" width="40" height="40" as="geometry" />
        </mxCell>
        <mxCell id="kYM8DjDP68Plctf1Hpr4-35" value="Text" style="text;html=1;strokeColor=none;fillColor=none;align=center;verticalAlign=middle;whiteSpace=wrap;rounded=0;" vertex="1" parent="kYM8DjDP68Plctf1Hpr4-1">
          <mxGeometry x="449.1" y="797" width="100" height="30" as="geometry" />
        </mxCell>
        <mxCell id="kYM8DjDP68Plctf1Hpr4-36" value="" style="shape=waypoint;sketch=0;fillStyle=solid;size=6;pointerEvents=1;points=[];fillColor=none;resizable=0;rotatable=0;perimeter=centerPerimeter;snapToPoint=1;" vertex="1" parent="kYM8DjDP68Plctf1Hpr4-1">
          <mxGeometry x="452.6" y="795" width="40" height="40" as="geometry" />
        </mxCell>
        <mxCell id="kYM8DjDP68Plctf1Hpr4-37" value="Electricidad" style="text;html=1;strokeColor=none;fillColor=none;align=center;verticalAlign=middle;whiteSpace=wrap;rounded=0;" vertex="1" parent="kYM8DjDP68Plctf1Hpr4-1">
          <mxGeometry x="337.1" y="764" width="100" height="30" as="geometry" />
        </mxCell>
        <mxCell id="kYM8DjDP68Plctf1Hpr4-38" value="" style="shape=waypoint;sketch=0;fillStyle=solid;size=6;pointerEvents=1;points=[];fillColor=none;resizable=0;rotatable=0;perimeter=centerPerimeter;snapToPoint=1;" vertex="1" parent="kYM8DjDP68Plctf1Hpr4-1">
          <mxGeometry x="319.1" y="759" width="40" height="40" as="geometry" />
        </mxCell>
        <mxCell id="kYM8DjDP68Plctf1Hpr4-39" value="" style="shape=waypoint;sketch=0;fillStyle=solid;size=6;pointerEvents=1;points=[];fillColor=none;resizable=0;rotatable=0;perimeter=centerPerimeter;snapToPoint=1;" vertex="1" parent="kYM8DjDP68Plctf1Hpr4-1">
          <mxGeometry x="319.1" y="793" width="40" height="40" as="geometry" />
        </mxCell>
        <mxCell id="kYM8DjDP68Plctf1Hpr4-40" value="Plomeria" style="text;html=1;strokeColor=none;fillColor=none;align=center;verticalAlign=middle;whiteSpace=wrap;rounded=0;" vertex="1" parent="kYM8DjDP68Plctf1Hpr4-1">
          <mxGeometry x="330.1" y="797" width="100" height="38" as="geometry" />
        </mxCell>
        <mxCell id="kYM8DjDP68Plctf1Hpr4-41" value="Gas" style="text;html=1;strokeColor=none;fillColor=none;align=center;verticalAlign=middle;whiteSpace=wrap;rounded=0;" vertex="1" parent="kYM8DjDP68Plctf1Hpr4-1">
          <mxGeometry x="449.1" y="767" width="100" height="30" as="geometry" />
        </mxCell>
        <mxCell id="kYM8DjDP68Plctf1Hpr4-42" value="Text" style="text;html=1;strokeColor=none;fillColor=none;align=center;verticalAlign=middle;whiteSpace=wrap;rounded=0;" vertex="1" parent="kYM8DjDP68Plctf1Hpr4-1">
          <mxGeometry x="552.6" y="767" width="100" height="30" as="geometry" />
        </mxCell>
        <mxCell id="kYM8DjDP68Plctf1Hpr4-43" value="" style="shape=waypoint;sketch=0;fillStyle=solid;size=6;pointerEvents=1;points=[];fillColor=none;resizable=0;rotatable=0;perimeter=centerPerimeter;snapToPoint=1;" vertex="1" parent="kYM8DjDP68Plctf1Hpr4-1">
          <mxGeometry x="552.6" y="764" width="40" height="40" as="geometry" />
        </mxCell>
        <mxCell id="kYM8DjDP68Plctf1Hpr4-44" value="" style="shape=waypoint;sketch=0;fillStyle=solid;size=6;pointerEvents=1;points=[];fillColor=none;resizable=0;rotatable=0;perimeter=centerPerimeter;snapToPoint=1;" vertex="1" parent="kYM8DjDP68Plctf1Hpr4-1">
          <mxGeometry x="629.35" y="762" width="40" height="40" as="geometry" />
        </mxCell>
        <mxCell id="kYM8DjDP68Plctf1Hpr4-45" value="Text" style="text;html=1;strokeColor=none;fillColor=none;align=center;verticalAlign=middle;whiteSpace=wrap;rounded=0;" vertex="1" parent="kYM8DjDP68Plctf1Hpr4-1">
          <mxGeometry x="625.85" y="798" width="100" height="30" as="geometry" />
        </mxCell>
        <mxCell id="kYM8DjDP68Plctf1Hpr4-46" value="Gas" style="text;html=1;strokeColor=none;fillColor=none;align=center;verticalAlign=middle;whiteSpace=wrap;rounded=0;" vertex="1" parent="kYM8DjDP68Plctf1Hpr4-1">
          <mxGeometry x="625.85" y="768" width="100" height="30" as="geometry" />
        </mxCell>
        <mxCell id="kYM8DjDP68Plctf1Hpr4-47" value="" style="shape=waypoint;sketch=0;fillStyle=solid;size=6;pointerEvents=1;points=[];fillColor=none;resizable=0;rotatable=0;perimeter=centerPerimeter;snapToPoint=1;" vertex="1" parent="kYM8DjDP68Plctf1Hpr4-1">
          <mxGeometry x="552.6" y="795" width="40" height="40" as="geometry" />
        </mxCell>
        <mxCell id="kYM8DjDP68Plctf1Hpr4-48" value="Text" style="text;html=1;strokeColor=none;fillColor=none;align=center;verticalAlign=middle;whiteSpace=wrap;rounded=0;" vertex="1" parent="kYM8DjDP68Plctf1Hpr4-1">
          <mxGeometry x="552.6" y="795" width="100" height="30" as="geometry" />
        </mxCell>
        <mxCell id="kYM8DjDP68Plctf1Hpr4-49" value="" style="shape=waypoint;sketch=0;fillStyle=solid;size=6;pointerEvents=1;points=[];fillColor=none;resizable=0;rotatable=0;perimeter=centerPerimeter;snapToPoint=1;" vertex="1" parent="kYM8DjDP68Plctf1Hpr4-1">
          <mxGeometry x="625.85" y="795" width="40" height="40" as="geometry" />
        </mxCell>
        <mxCell id="kYM8DjDP68Plctf1Hpr4-50" value="atencion al cliente" style="text;html=1;strokeColor=none;fillColor=none;align=center;verticalAlign=middle;whiteSpace=wrap;rounded=0;fontSize=10;" vertex="1" parent="kYM8DjDP68Plctf1Hpr4-1">
          <mxGeometry x="61.75" y="1100" width="110" height="30" as="geometry" />
        </mxCell>
        <mxCell id="kYM8DjDP68Plctf1Hpr4-51" value="terminos y condiciones" style="text;html=1;strokeColor=none;fillColor=none;align=center;verticalAlign=middle;whiteSpace=wrap;rounded=0;fontSize=10;" vertex="1" parent="kYM8DjDP68Plctf1Hpr4-1">
          <mxGeometry x="244" y="1100" width="116.5" height="30" as="geometry" />
        </mxCell>
        <mxCell id="kYM8DjDP68Plctf1Hpr4-52" value="ayuda" style="text;html=1;strokeColor=none;fillColor=none;align=center;verticalAlign=middle;whiteSpace=wrap;rounded=0;fontSize=10;" vertex="1" parent="kYM8DjDP68Plctf1Hpr4-1">
          <mxGeometry x="417.75" y="1100" width="116.5" height="30" as="geometry" />
        </mxCell>
        <mxCell id="kYM8DjDP68Plctf1Hpr4-53" value="&lt;span style=&quot;font-family: &amp;#34;raleway&amp;#34; , sans-serif ; font-size: 12px ; letter-spacing: 0.88px ; text-transform: uppercase ; background-color: rgb(255 , 255 , 255)&quot;&gt;COPYRIGHT Â© 2021&lt;/span&gt;" style="text;html=1;strokeColor=none;fillColor=none;align=center;verticalAlign=middle;whiteSpace=wrap;rounded=0;fontSize=10;" vertex="1" parent="kYM8DjDP68Plctf1Hpr4-1">
          <mxGeometry x="260" y="1130" width="310" height="30" as="geometry" />
        </mxCell>
        <mxCell id="kYM8DjDP68Plctf1Hpr4-54" value="" style="shape=waypoint;sketch=0;fillStyle=solid;size=6;pointerEvents=1;points=[];fillColor=none;resizable=0;rotatable=0;perimeter=centerPerimeter;snapToPoint=1;fontSize=10;fontColor=#000000;strokeWidth=1;" vertex="1" parent="kYM8DjDP68Plctf1Hpr4-1">
          <mxGeometry x="364.25" y="990" width="40" height="40" as="geometry" />
        </mxCell>
        <mxCell id="kYM8DjDP68Plctf1Hpr4-55" value="" style="shape=waypoint;sketch=0;fillStyle=solid;size=6;pointerEvents=1;points=[];fillColor=none;resizable=0;rotatable=0;perimeter=centerPerimeter;snapToPoint=1;fontSize=10;fontColor=#000000;strokeWidth=1;" vertex="1" parent="kYM8DjDP68Plctf1Hpr4-1">
          <mxGeometry x="384.25" y="990" width="40" height="40" as="geometry" />
        </mxCell>
        <mxCell id="kYM8DjDP68Plctf1Hpr4-56" value="" style="shape=waypoint;sketch=0;fillStyle=solid;size=6;pointerEvents=1;points=[];fillColor=none;resizable=0;rotatable=0;perimeter=centerPerimeter;snapToPoint=1;fontSize=10;fontColor=#000000;strokeWidth=1;" vertex="1" parent="kYM8DjDP68Plctf1Hpr4-1">
          <mxGeometry x="404.75" y="990" width="40" height="40" as="geometry" />
        </mxCell>
        <mxCell id="kYM8DjDP68Plctf1Hpr4-60" value="" style="dashed=0;outlineConnect=0;html=1;align=center;labelPosition=center;verticalLabelPosition=bottom;verticalAlign=top;shape=mxgraph.weblogos.youtube_2;fillColor=#FF2626;gradientColor=#B5171F;fontSize=10;fontColor=#000000;strokeWidth=1;" vertex="1" parent="kYM8DjDP68Plctf1Hpr4-1">
          <mxGeometry x="780" y="114.9" width="16.4" height="12.6" as="geometry" />
        </mxCell>
        <mxCell id="kYM8DjDP68Plctf1Hpr4-61" value="" style="dashed=0;outlineConnect=0;html=1;align=center;labelPosition=center;verticalLabelPosition=bottom;verticalAlign=top;shape=mxgraph.weblogos.twitter;fillColor=#1DA1F2;strokeColor=none;fontSize=10;fontColor=#000000;" vertex="1" parent="kYM8DjDP68Plctf1Hpr4-1">
          <mxGeometry x="750" y="111.30000000000001" width="20" height="20" as="geometry" />
        </mxCell>
        <mxCell id="kYM8DjDP68Plctf1Hpr4-62" value="" style="dashed=0;outlineConnect=0;html=1;align=center;labelPosition=center;verticalLabelPosition=bottom;verticalAlign=top;shape=mxgraph.weblogos.instagram;fillColor=#6FC0E4;gradientColor=#1E305B;fontSize=10;fontColor=#000000;strokeWidth=1;" vertex="1" parent="kYM8DjDP68Plctf1Hpr4-1">
          <mxGeometry x="717.8" y="110.20000000000002" width="22.2" height="22.2" as="geometry" />
        </mxCell>
        <mxCell id="kYM8DjDP68Plctf1Hpr4-63" value="" style="dashed=0;outlineConnect=0;html=1;align=center;labelPosition=center;verticalLabelPosition=bottom;verticalAlign=top;shape=mxgraph.webicons.facebook;fillColor=#6294E4;gradientColor=#1A2665;fontSize=10;fontColor=#000000;strokeWidth=1;" vertex="1" parent="kYM8DjDP68Plctf1Hpr4-1">
          <mxGeometry x="680.5500000000001" y="110.00000000000003" width="22.4" height="22.4" as="geometry" />
        </mxCell>
        <mxCell id="kYM8DjDP68Plctf1Hpr4-64" value="" style="dashed=0;outlineConnect=0;html=1;align=center;labelPosition=center;verticalLabelPosition=bottom;verticalAlign=top;shape=mxgraph.webicons.gmail;gradientColor=#DFDEDE;fontSize=10;fontColor=#000000;strokeWidth=1;" vertex="1" parent="kYM8DjDP68Plctf1Hpr4-1">
          <mxGeometry x="56.10000000000001" y="75" width="22.4" height="22.4" as="geometry" />
        </mxCell>
        <mxCell id="kYM8DjDP68Plctf1Hpr4-65" value="contacto" style="text;html=1;strokeColor=none;fillColor=none;align=center;verticalAlign=middle;whiteSpace=wrap;rounded=0;fontSize=10;" vertex="1" parent="kYM8DjDP68Plctf1Hpr4-1">
          <mxGeometry x="633.5" y="1100" width="116.5" height="30" as="geometry" />
        </mxCell>
        <mxCell id="kYM8DjDP68Plctf1Hpr4-66" value="" style="dashed=0;outlineConnect=0;html=1;align=center;labelPosition=center;verticalLabelPosition=bottom;verticalAlign=top;shape=mxgraph.webicons.whatsapp;fillColor=#4FE238;gradientColor=#138709;fontSize=10;fontColor=#000000;strokeWidth=1;" vertex="1" parent="kYM8DjDP68Plctf1Hpr4-1">
          <mxGeometry x="97.60000000000002" y="75.00000000000003" width="22.4" height="22.4" as="geometry" />
        </mxCell>
        <mxCell id="moNcnZf670vWW47aLsmv-0" value="" style="shape=internalStorage;whiteSpace=wrap;html=1;backgroundOutline=1;" vertex="1" parent="kYM8DjDP68Plctf1Hpr4-1">
          <mxGeometry x="41" y="201" width="240" height="249" as="geometry" />
        </mxCell>
        <mxCell id="moNcnZf670vWW47aLsmv-1" value="&lt;h1&gt;&lt;font style=&quot;font-size: 26px&quot;&gt;Nombre del Prof.&lt;/font&gt;&lt;/h1&gt;&lt;p style=&quot;font-size: 15px&quot;&gt;&lt;font style=&quot;font-size: 15px&quot;&gt;edad:&amp;nbsp; &amp;nbsp; &amp;nbsp; &amp;nbsp; &amp;nbsp; &amp;nbsp; &amp;nbsp; &amp;nbsp; &amp;nbsp; &amp;nbsp; &amp;nbsp; &amp;nbsp; &amp;nbsp; &amp;nbsp; &amp;nbsp; &amp;nbsp; &amp;nbsp; &amp;nbsp; &amp;nbsp; &amp;nbsp; &amp;nbsp; &amp;nbsp; &amp;nbsp; &amp;nbsp;&lt;/font&gt;&lt;span&gt;aÃ±os experiencia:&lt;/span&gt;&lt;/p&gt;&lt;p style=&quot;font-size: 15px&quot;&gt;&lt;font style=&quot;font-size: 15px&quot;&gt;matricula: si/no&amp;nbsp; &amp;nbsp; &amp;nbsp; &amp;nbsp; &amp;nbsp; &amp;nbsp; &amp;nbsp; &amp;nbsp; &amp;nbsp; &amp;nbsp; &amp;nbsp; &amp;nbsp; &amp;nbsp; &amp;nbsp; &amp;nbsp; &amp;nbsp; &amp;nbsp;&lt;/font&gt;&lt;span&gt;zona:&lt;/span&gt;&lt;/p&gt;&lt;p style=&quot;font-size: 15px&quot;&gt;Trabaja en equipo:si/no/depende&amp;nbsp; &amp;nbsp; &amp;nbsp;lleva sus herramientas: si/no&lt;/p&gt;&lt;p&gt;&lt;br&gt;&lt;/p&gt;" style="text;html=1;strokeColor=none;fillColor=none;spacing=5;spacingTop=-20;whiteSpace=wrap;overflow=hidden;rounded=0;fontSize=19;fontColor=#000000;" vertex="1" parent="kYM8DjDP68Plctf1Hpr4-1">
          <mxGeometry x="317.81" y="180" width="476.75" height="170" as="geometry" />
        </mxCell>
        <mxCell id="moNcnZf670vWW47aLsmv-6" value="Porque elegirme" style="text;html=1;strokeColor=none;fillColor=none;align=center;verticalAlign=middle;whiteSpace=wrap;rounded=0;fontSize=16;fontColor=#000000;" vertex="1" parent="kYM8DjDP68Plctf1Hpr4-1">
          <mxGeometry x="323.25" y="370" width="126.75" height="30" as="geometry" />
        </mxCell>
        <mxCell id="9fhcAS-3y-ebVkBCymnL-0" value="" style="rounded=0;whiteSpace=wrap;html=1;fontSize=16;fontColor=#000000;strokeWidth=1;" vertex="1" parent="kYM8DjDP68Plctf1Hpr4-1">
          <mxGeometry x="120" y="400" width="90" height="40" as="geometry" />
        </mxCell>
        <mxCell id="9fhcAS-3y-ebVkBCymnL-1" value="Agregar Servicio" style="text;html=1;strokeColor=none;fillColor=none;align=center;verticalAlign=middle;whiteSpace=wrap;rounded=0;fontSize=16;fontColor=#000000;" vertex="1" parent="kYM8DjDP68Plctf1Hpr4-1">
          <mxGeometry x="137.5" y="416" width="60" height="7" as="geometry" />
        </mxCell>
        <mxCell id="v9FMw_AuLEH3rVwqcX2X-5" value="" style="shape=internalStorage;whiteSpace=wrap;html=1;backgroundOutline=1;" vertex="1" parent="kYM8DjDP68Plctf1Hpr4-1">
          <mxGeometry x="41" y="520" width="771" height="150" as="geometry" />
        </mxCell>
        <mxCell id="v9FMw_AuLEH3rVwqcX2X-6" value="Algunos de mis trabajos" style="text;html=1;strokeColor=none;fillColor=none;align=center;verticalAlign=middle;whiteSpace=wrap;rounded=0;fontSize=28;" vertex="1" parent="kYM8DjDP68Plctf1Hpr4-1">
          <mxGeometry x="-107.4" y="480" width="600" height="30" as="geometry" />
        </mxCell>
        <mxCell id="v9FMw_AuLEH3rVwqcX2X-7" value="" style="shape=waypoint;sketch=0;fillStyle=solid;size=6;pointerEvents=1;points=[];fillColor=none;resizable=0;rotatable=0;perimeter=centerPerimeter;snapToPoint=1;fontSize=10;fontColor=#000000;strokeWidth=1;" vertex="1" parent="kYM8DjDP68Plctf1Hpr4-1">
          <mxGeometry x="386.25" y="620" width="40" height="40" as="geometry" />
        </mxCell>
        <mxCell id="v9FMw_AuLEH3rVwqcX2X-8" value="" style="shape=waypoint;sketch=0;fillStyle=solid;size=6;pointerEvents=1;points=[];fillColor=none;resizable=0;rotatable=0;perimeter=centerPerimeter;snapToPoint=1;fontSize=10;fontColor=#000000;strokeWidth=1;" vertex="1" parent="kYM8DjDP68Plctf1Hpr4-1">
          <mxGeometry x="406.25" y="620" width="40" height="40" as="geometry" />
        </mxCell>
        <mxCell id="v9FMw_AuLEH3rVwqcX2X-9" value="" style="shape=waypoint;sketch=0;fillStyle=solid;size=6;pointerEvents=1;points=[];fillColor=none;resizable=0;rotatable=0;perimeter=centerPerimeter;snapToPoint=1;fontSize=10;fontColor=#000000;strokeWidth=1;" vertex="1" parent="kYM8DjDP68Plctf1Hpr4-1">
          <mxGeometry x="426.75" y="620" width="40" height="40" as="geometry" />
        </mxCell>
        <mxCell id="v9FMw_AuLEH3rVwqcX2X-13" value="" style="verticalLabelPosition=bottom;verticalAlign=top;html=1;shape=mxgraph.basic.star;fontSize=16;fontColor=#000000;strokeWidth=1;" vertex="1" parent="kYM8DjDP68Plctf1Hpr4-1">
          <mxGeometry x="573.5" y="210" width="13.25" height="15" as="geometry" />
        </mxCell>
        <mxCell id="v9FMw_AuLEH3rVwqcX2X-14" value="" style="verticalLabelPosition=bottom;verticalAlign=top;html=1;shape=mxgraph.basic.star;fontSize=16;fontColor=#000000;strokeWidth=1;" vertex="1" parent="kYM8DjDP68Plctf1Hpr4-1">
          <mxGeometry x="595.97" y="210" width="13.25" height="15" as="geometry" />
        </mxCell>
        <mxCell id="v9FMw_AuLEH3rVwqcX2X-15" value="" style="verticalLabelPosition=bottom;verticalAlign=top;html=1;shape=mxgraph.basic.star;fontSize=16;fontColor=#000000;strokeWidth=1;" vertex="1" parent="kYM8DjDP68Plctf1Hpr4-1">
          <mxGeometry x="620.25" y="210" width="13.25" height="15" as="geometry" />
        </mxCell>
        <mxCell id="v9FMw_AuLEH3rVwqcX2X-16" value="" style="verticalLabelPosition=bottom;verticalAlign=top;html=1;shape=mxgraph.basic.star;fontSize=16;fontColor=#000000;strokeWidth=1;" vertex="1" parent="kYM8DjDP68Plctf1Hpr4-1">
          <mxGeometry x="642.72" y="210" width="13.25" height="15" as="geometry" />
        </mxCell>
        <mxCell id="v9FMw_AuLEH3rVwqcX2X-17" value="" style="verticalLabelPosition=bottom;verticalAlign=top;html=1;shape=mxgraph.basic.star;fontSize=16;fontColor=#000000;strokeWidth=1;" vertex="1" parent="kYM8DjDP68Plctf1Hpr4-1">
          <mxGeometry x="665.85" y="210" width="13.25" height="15" as="geometry" />
        </mxCell>
        <mxCell id="v9FMw_AuLEH3rVwqcX2X-18" value="link a comentarios" style="text;html=1;strokeColor=none;fillColor=none;align=center;verticalAlign=middle;whiteSpace=wrap;rounded=0;fontSize=16;fontColor=#000000;" vertex="1" parent="kYM8DjDP68Plctf1Hpr4-1">
          <mxGeometry x="592.6" y="140" width="60" height="30" as="geometry" />
        </mxCell>
        <mxCell id="NdhF0OQ4kmT_hRs7hX8i-1" value="" style="verticalLabelPosition=bottom;verticalAlign=top;html=1;shape=mxgraph.basic.star;fontSize=16;fontColor=#000000;strokeWidth=1;" vertex="1" parent="kYM8DjDP68Plctf1Hpr4-1">
          <mxGeometry x="572.5" y="231" width="13.25" height="15" as="geometry" />
        </mxCell>
        <mxCell id="NdhF0OQ4kmT_hRs7hX8i-2" value="" style="verticalLabelPosition=bottom;verticalAlign=top;html=1;shape=mxgraph.basic.star;fontSize=16;fontColor=#000000;strokeWidth=1;" vertex="1" parent="kYM8DjDP68Plctf1Hpr4-1">
          <mxGeometry x="594.97" y="231" width="13.25" height="15" as="geometry" />
        </mxCell>
        <mxCell id="NdhF0OQ4kmT_hRs7hX8i-3" value="" style="verticalLabelPosition=bottom;verticalAlign=top;html=1;shape=mxgraph.basic.star;fontSize=16;fontColor=#000000;strokeWidth=1;" vertex="1" parent="kYM8DjDP68Plctf1Hpr4-1">
          <mxGeometry x="619.25" y="231" width="13.25" height="15" as="geometry" />
        </mxCell>
        <mxCell id="NdhF0OQ4kmT_hRs7hX8i-4" value="" style="verticalLabelPosition=bottom;verticalAlign=top;html=1;shape=mxgraph.basic.star;fontSize=16;fontColor=#000000;strokeWidth=1;" vertex="1" parent="kYM8DjDP68Plctf1Hpr4-1">
          <mxGeometry x="641.72" y="231" width="13.25" height="15" as="geometry" />
        </mxCell>
        <mxCell id="NdhF0OQ4kmT_hRs7hX8i-5" value="" style="verticalLabelPosition=bottom;verticalAlign=top;html=1;shape=mxgraph.basic.star;fontSize=16;fontColor=#000000;strokeWidth=1;" vertex="1" parent="kYM8DjDP68Plctf1Hpr4-1">
          <mxGeometry x="664.85" y="231" width="13.25" height="15" as="geometry" />
        </mxCell>
        <mxCell id="NdhF0OQ4kmT_hRs7hX8i-6" value="" style="verticalLabelPosition=bottom;verticalAlign=top;html=1;shape=mxgraph.basic.star;fontSize=16;fontColor=#000000;strokeWidth=1;" vertex="1" parent="kYM8DjDP68Plctf1Hpr4-1">
          <mxGeometry x="572.5" y="187" width="13.25" height="15" as="geometry" />
        </mxCell>
        <mxCell id="NdhF0OQ4kmT_hRs7hX8i-7" value="" style="verticalLabelPosition=bottom;verticalAlign=top;html=1;shape=mxgraph.basic.star;fontSize=16;fontColor=#000000;strokeWidth=1;" vertex="1" parent="kYM8DjDP68Plctf1Hpr4-1">
          <mxGeometry x="594.97" y="187" width="13.25" height="15" as="geometry" />
        </mxCell>
        <mxCell id="NdhF0OQ4kmT_hRs7hX8i-8" value="" style="verticalLabelPosition=bottom;verticalAlign=top;html=1;shape=mxgraph.basic.star;fontSize=16;fontColor=#000000;strokeWidth=1;" vertex="1" parent="kYM8DjDP68Plctf1Hpr4-1">
          <mxGeometry x="619.25" y="187" width="13.25" height="15" as="geometry" />
        </mxCell>
        <mxCell id="NdhF0OQ4kmT_hRs7hX8i-9" value="" style="verticalLabelPosition=bottom;verticalAlign=top;html=1;shape=mxgraph.basic.star;fontSize=16;fontColor=#000000;strokeWidth=1;" vertex="1" parent="kYM8DjDP68Plctf1Hpr4-1">
          <mxGeometry x="641.72" y="187" width="13.25" height="15" as="geometry" />
        </mxCell>
        <mxCell id="NdhF0OQ4kmT_hRs7hX8i-10" value="" style="verticalLabelPosition=bottom;verticalAlign=top;html=1;shape=mxgraph.basic.star;fontSize=16;fontColor=#000000;strokeWidth=1;" vertex="1" parent="kYM8DjDP68Plctf1Hpr4-1">
          <mxGeometry x="664.85" y="187" width="13.25" height="15" as="geometry" />
        </mxCell>
        <mxCell id="NdhF0OQ4kmT_hRs7hX8i-11" value="&lt;font style=&quot;font-size: 13px&quot;&gt;Rapidez&lt;/font&gt;" style="text;html=1;strokeColor=none;fillColor=none;align=center;verticalAlign=middle;whiteSpace=wrap;rounded=0;fontSize=16;fontColor=#000000;" vertex="1" parent="kYM8DjDP68Plctf1Hpr4-1">
          <mxGeometry x="698.9" y="225" width="60" height="30" as="geometry" />
        </mxCell>
        <mxCell id="NdhF0OQ4kmT_hRs7hX8i-12" value="&lt;font style=&quot;font-size: 13px&quot;&gt;Precio&lt;/font&gt;" style="text;html=1;strokeColor=none;fillColor=none;align=center;verticalAlign=middle;whiteSpace=wrap;rounded=0;fontSize=16;fontColor=#000000;" vertex="1" parent="kYM8DjDP68Plctf1Hpr4-1">
          <mxGeometry x="700" y="201" width="60" height="30" as="geometry" />
        </mxCell>
        <mxCell id="NdhF0OQ4kmT_hRs7hX8i-13" value="&lt;font style=&quot;font-size: 13px&quot;&gt;Satisfaccion&lt;/font&gt;" style="text;html=1;strokeColor=none;fillColor=none;align=center;verticalAlign=middle;whiteSpace=wrap;rounded=0;fontSize=16;fontColor=#000000;" vertex="1" parent="kYM8DjDP68Plctf1Hpr4-1">
          <mxGeometry x="701.9499999999999" y="179" width="60" height="30" as="geometry" />
        </mxCell>
      </root>
    </mxGraphModel>
  </diagram>
  <diagram name="carritoDeCompras" id="C_kDmfKmQVEspyjKUNAm">
    <mxGraphModel dx="1353" dy="737" grid="1" gridSize="10" guides="1" tooltips="1" connect="1" arrows="1" fold="1" page="1" pageScale="1" pageWidth="827" pageHeight="1169" math="0" shadow="0">
      <root>
        <mxCell id="GglZPj0ahe2qBc4Vp5ky-0" />
        <mxCell id="GglZPj0ahe2qBc4Vp5ky-1" parent="GglZPj0ahe2qBc4Vp5ky-0" />
        <mxCell id="SuxhvMxeJJD-03yDfDz4-2" value="" style="whiteSpace=wrap;html=1;aspect=fixed;fontSize=13;fontColor=#000000;strokeWidth=1;" vertex="1" parent="GglZPj0ahe2qBc4Vp5ky-1">
          <mxGeometry x="637.8" y="174" width="162.2" height="162.2" as="geometry" />
        </mxCell>
        <mxCell id="GglZPj0ahe2qBc4Vp5ky-3" value="" style="rounded=0;whiteSpace=wrap;html=1;" vertex="1" parent="GglZPj0ahe2qBc4Vp5ky-1">
          <mxGeometry width="800" height="100" as="geometry" />
        </mxCell>
        <mxCell id="GglZPj0ahe2qBc4Vp5ky-4" value="Buscador" style="rounded=0;whiteSpace=wrap;html=1;" vertex="1" parent="GglZPj0ahe2qBc4Vp5ky-1">
          <mxGeometry x="203.25" y="10" width="360" height="30" as="geometry" />
        </mxCell>
        <mxCell id="GglZPj0ahe2qBc4Vp5ky-5" value="" style="shape=internalStorage;whiteSpace=wrap;html=1;backgroundOutline=1;" vertex="1" parent="GglZPj0ahe2qBc4Vp5ky-1">
          <mxGeometry x="49" y="10" width="80" height="60" as="geometry" />
        </mxCell>
        <UserObject label="Categorias" treeRoot="1" id="GglZPj0ahe2qBc4Vp5ky-6">
          <mxCell style="whiteSpace=wrap;html=1;align=center;treeFolding=1;treeMoving=1;newEdgeStyle={&quot;edgeStyle&quot;:&quot;elbowEdgeStyle&quot;,&quot;startArrow&quot;:&quot;none&quot;,&quot;endArrow&quot;:&quot;none&quot;};" vertex="1" parent="GglZPj0ahe2qBc4Vp5ky-1">
            <mxGeometry x="180" y="50" width="110" height="20" as="geometry" />
          </mxCell>
        </UserObject>
        <UserObject label="Ingresar" treeRoot="1" id="GglZPj0ahe2qBc4Vp5ky-7">
          <mxCell style="whiteSpace=wrap;html=1;align=center;treeFolding=1;treeMoving=1;newEdgeStyle={&quot;edgeStyle&quot;:&quot;elbowEdgeStyle&quot;,&quot;startArrow&quot;:&quot;none&quot;,&quot;endArrow&quot;:&quot;none&quot;};" vertex="1" parent="GglZPj0ahe2qBc4Vp5ky-1">
            <mxGeometry x="660" y="20" width="100" height="20" as="geometry" />
          </mxCell>
        </UserObject>
        <mxCell id="GglZPj0ahe2qBc4Vp5ky-8" value="" style="ellipse;whiteSpace=wrap;html=1;aspect=fixed;" vertex="1" parent="GglZPj0ahe2qBc4Vp5ky-1">
          <mxGeometry x="573.5" y="15" width="20" height="20" as="geometry" />
        </mxCell>
        <UserObject label="Tambien te puede interesar" treeRoot="1" id="GglZPj0ahe2qBc4Vp5ky-9">
          <mxCell style="whiteSpace=wrap;html=1;align=center;treeFolding=1;treeMoving=1;newEdgeStyle={&quot;edgeStyle&quot;:&quot;elbowEdgeStyle&quot;,&quot;startArrow&quot;:&quot;none&quot;,&quot;endArrow&quot;:&quot;none&quot;};" vertex="1" parent="GglZPj0ahe2qBc4Vp5ky-1">
            <mxGeometry x="229.5" y="537" width="321" height="60" as="geometry" />
          </mxCell>
        </UserObject>
        <mxCell id="GglZPj0ahe2qBc4Vp5ky-10" value="" style="shape=waypoint;sketch=0;fillStyle=solid;size=6;pointerEvents=1;points=[];fillColor=none;resizable=0;rotatable=0;perimeter=centerPerimeter;snapToPoint=1;" vertex="1" parent="GglZPj0ahe2qBc4Vp5ky-1">
          <mxGeometry x="195.25" y="594" width="40" height="40" as="geometry" />
        </mxCell>
        <mxCell id="GglZPj0ahe2qBc4Vp5ky-11" value="Text" style="text;html=1;strokeColor=none;fillColor=none;align=center;verticalAlign=middle;whiteSpace=wrap;rounded=0;" vertex="1" parent="GglZPj0ahe2qBc4Vp5ky-1">
          <mxGeometry x="191.75" y="630" width="100" height="30" as="geometry" />
        </mxCell>
        <mxCell id="GglZPj0ahe2qBc4Vp5ky-12" value="" style="shape=waypoint;sketch=0;fillStyle=solid;size=6;pointerEvents=1;points=[];fillColor=none;resizable=0;rotatable=0;perimeter=centerPerimeter;snapToPoint=1;" vertex="1" parent="GglZPj0ahe2qBc4Vp5ky-1">
          <mxGeometry x="195.25" y="628" width="40" height="40" as="geometry" />
        </mxCell>
        <mxCell id="GglZPj0ahe2qBc4Vp5ky-13" value="Electricidad" style="text;html=1;strokeColor=none;fillColor=none;align=center;verticalAlign=middle;whiteSpace=wrap;rounded=0;" vertex="1" parent="GglZPj0ahe2qBc4Vp5ky-1">
          <mxGeometry x="79.75" y="597" width="100" height="30" as="geometry" />
        </mxCell>
        <mxCell id="GglZPj0ahe2qBc4Vp5ky-14" value="" style="shape=waypoint;sketch=0;fillStyle=solid;size=6;pointerEvents=1;points=[];fillColor=none;resizable=0;rotatable=0;perimeter=centerPerimeter;snapToPoint=1;" vertex="1" parent="GglZPj0ahe2qBc4Vp5ky-1">
          <mxGeometry x="61.75" y="592" width="40" height="40" as="geometry" />
        </mxCell>
        <mxCell id="GglZPj0ahe2qBc4Vp5ky-15" value="" style="shape=waypoint;sketch=0;fillStyle=solid;size=6;pointerEvents=1;points=[];fillColor=none;resizable=0;rotatable=0;perimeter=centerPerimeter;snapToPoint=1;" vertex="1" parent="GglZPj0ahe2qBc4Vp5ky-1">
          <mxGeometry x="61.75" y="626" width="40" height="40" as="geometry" />
        </mxCell>
        <mxCell id="GglZPj0ahe2qBc4Vp5ky-16" value="Plomeria" style="text;html=1;strokeColor=none;fillColor=none;align=center;verticalAlign=middle;whiteSpace=wrap;rounded=0;" vertex="1" parent="GglZPj0ahe2qBc4Vp5ky-1">
          <mxGeometry x="72.75" y="630" width="100" height="38" as="geometry" />
        </mxCell>
        <mxCell id="GglZPj0ahe2qBc4Vp5ky-17" value="Gas" style="text;html=1;strokeColor=none;fillColor=none;align=center;verticalAlign=middle;whiteSpace=wrap;rounded=0;" vertex="1" parent="GglZPj0ahe2qBc4Vp5ky-1">
          <mxGeometry x="191.75" y="600" width="100" height="30" as="geometry" />
        </mxCell>
        <mxCell id="GglZPj0ahe2qBc4Vp5ky-18" value="" style="shape=internalStorage;whiteSpace=wrap;html=1;backgroundOutline=1;" vertex="1" parent="GglZPj0ahe2qBc4Vp5ky-1">
          <mxGeometry x="29" y="680" width="770" height="230" as="geometry" />
        </mxCell>
        <mxCell id="GglZPj0ahe2qBc4Vp5ky-19" value="&lt;font style=&quot;font-size: 19px&quot;&gt;La soluciÃ³n que buscas,&lt;br&gt;con el profesionalismo que necesitas&lt;br&gt;&lt;br&gt;&lt;/font&gt;" style="text;html=1;strokeColor=none;fillColor=none;align=center;verticalAlign=middle;whiteSpace=wrap;rounded=0;strokeWidth=4;" vertex="1" parent="GglZPj0ahe2qBc4Vp5ky-1">
          <mxGeometry x="100" y="140" width="560" height="30" as="geometry" />
        </mxCell>
        <mxCell id="GglZPj0ahe2qBc4Vp5ky-20" value="publicidad" style="text;html=1;strokeColor=none;fillColor=none;align=center;verticalAlign=middle;whiteSpace=wrap;rounded=0;fontSize=28;" vertex="1" parent="GglZPj0ahe2qBc4Vp5ky-1">
          <mxGeometry x="373.5" y="780" width="60" height="30" as="geometry" />
        </mxCell>
        <mxCell id="GglZPj0ahe2qBc4Vp5ky-21" value="" style="shape=internalStorage;whiteSpace=wrap;html=1;backgroundOutline=1;" vertex="1" parent="GglZPj0ahe2qBc4Vp5ky-1">
          <mxGeometry x="29" y="930" width="771" height="150" as="geometry" />
        </mxCell>
        <mxCell id="GglZPj0ahe2qBc4Vp5ky-22" value="empresas que confiaron en nosotros(logos)" style="text;html=1;strokeColor=none;fillColor=none;align=center;verticalAlign=middle;whiteSpace=wrap;rounded=0;fontSize=28;" vertex="1" parent="GglZPj0ahe2qBc4Vp5ky-1">
          <mxGeometry x="120" y="1000" width="600" height="30" as="geometry" />
        </mxCell>
        <mxCell id="GglZPj0ahe2qBc4Vp5ky-23" style="edgeStyle=orthogonalEdgeStyle;rounded=0;orthogonalLoop=1;jettySize=auto;html=1;exitX=0.5;exitY=1;exitDx=0;exitDy=0;fontSize=28;" edge="1" parent="GglZPj0ahe2qBc4Vp5ky-1" source="GglZPj0ahe2qBc4Vp5ky-7" target="GglZPj0ahe2qBc4Vp5ky-7">
          <mxGeometry relative="1" as="geometry" />
        </mxCell>
        <mxCell id="GglZPj0ahe2qBc4Vp5ky-24" value="" style="rounded=0;whiteSpace=wrap;html=1;fontSize=10;strokeWidth=1;" vertex="1" parent="GglZPj0ahe2qBc4Vp5ky-1">
          <mxGeometry x="650" y="45" width="120" height="30" as="geometry" />
        </mxCell>
        <mxCell id="GglZPj0ahe2qBc4Vp5ky-25" value="carrito" style="text;html=1;strokeColor=none;fillColor=none;align=center;verticalAlign=middle;whiteSpace=wrap;rounded=0;fontSize=10;" vertex="1" parent="GglZPj0ahe2qBc4Vp5ky-1">
          <mxGeometry x="680" y="45" width="60" height="30" as="geometry" />
        </mxCell>
        <mxCell id="GglZPj0ahe2qBc4Vp5ky-26" value="" style="rounded=0;whiteSpace=wrap;html=1;fontSize=10;strokeWidth=1;" vertex="1" parent="GglZPj0ahe2qBc4Vp5ky-1">
          <mxGeometry x="29" y="1100" width="771" height="60" as="geometry" />
        </mxCell>
        <mxCell id="GglZPj0ahe2qBc4Vp5ky-27" value="" style="shape=waypoint;sketch=0;fillStyle=solid;size=6;pointerEvents=1;points=[];fillColor=none;resizable=0;rotatable=0;perimeter=centerPerimeter;snapToPoint=1;" vertex="1" parent="GglZPj0ahe2qBc4Vp5ky-1">
          <mxGeometry x="416.75" y="599" width="40" height="40" as="geometry" />
        </mxCell>
        <mxCell id="GglZPj0ahe2qBc4Vp5ky-28" value="Text" style="text;html=1;strokeColor=none;fillColor=none;align=center;verticalAlign=middle;whiteSpace=wrap;rounded=0;" vertex="1" parent="GglZPj0ahe2qBc4Vp5ky-1">
          <mxGeometry x="413.25" y="635" width="100" height="30" as="geometry" />
        </mxCell>
        <mxCell id="GglZPj0ahe2qBc4Vp5ky-29" value="" style="shape=waypoint;sketch=0;fillStyle=solid;size=6;pointerEvents=1;points=[];fillColor=none;resizable=0;rotatable=0;perimeter=centerPerimeter;snapToPoint=1;" vertex="1" parent="GglZPj0ahe2qBc4Vp5ky-1">
          <mxGeometry x="416.75" y="633" width="40" height="40" as="geometry" />
        </mxCell>
        <mxCell id="GglZPj0ahe2qBc4Vp5ky-30" value="Electricidad" style="text;html=1;strokeColor=none;fillColor=none;align=center;verticalAlign=middle;whiteSpace=wrap;rounded=0;" vertex="1" parent="GglZPj0ahe2qBc4Vp5ky-1">
          <mxGeometry x="301.25" y="602" width="100" height="30" as="geometry" />
        </mxCell>
        <mxCell id="GglZPj0ahe2qBc4Vp5ky-31" value="" style="shape=waypoint;sketch=0;fillStyle=solid;size=6;pointerEvents=1;points=[];fillColor=none;resizable=0;rotatable=0;perimeter=centerPerimeter;snapToPoint=1;" vertex="1" parent="GglZPj0ahe2qBc4Vp5ky-1">
          <mxGeometry x="283.25" y="597" width="40" height="40" as="geometry" />
        </mxCell>
        <mxCell id="GglZPj0ahe2qBc4Vp5ky-32" value="" style="shape=waypoint;sketch=0;fillStyle=solid;size=6;pointerEvents=1;points=[];fillColor=none;resizable=0;rotatable=0;perimeter=centerPerimeter;snapToPoint=1;" vertex="1" parent="GglZPj0ahe2qBc4Vp5ky-1">
          <mxGeometry x="283.25" y="631" width="40" height="40" as="geometry" />
        </mxCell>
        <mxCell id="GglZPj0ahe2qBc4Vp5ky-33" value="Plomeria" style="text;html=1;strokeColor=none;fillColor=none;align=center;verticalAlign=middle;whiteSpace=wrap;rounded=0;" vertex="1" parent="GglZPj0ahe2qBc4Vp5ky-1">
          <mxGeometry x="294.25" y="635" width="100" height="38" as="geometry" />
        </mxCell>
        <mxCell id="GglZPj0ahe2qBc4Vp5ky-34" value="Gas" style="text;html=1;strokeColor=none;fillColor=none;align=center;verticalAlign=middle;whiteSpace=wrap;rounded=0;" vertex="1" parent="GglZPj0ahe2qBc4Vp5ky-1">
          <mxGeometry x="413.25" y="605" width="100" height="30" as="geometry" />
        </mxCell>
        <mxCell id="GglZPj0ahe2qBc4Vp5ky-35" value="Text" style="text;html=1;strokeColor=none;fillColor=none;align=center;verticalAlign=middle;whiteSpace=wrap;rounded=0;" vertex="1" parent="GglZPj0ahe2qBc4Vp5ky-1">
          <mxGeometry x="516.75" y="605" width="100" height="30" as="geometry" />
        </mxCell>
        <mxCell id="GglZPj0ahe2qBc4Vp5ky-36" value="" style="shape=waypoint;sketch=0;fillStyle=solid;size=6;pointerEvents=1;points=[];fillColor=none;resizable=0;rotatable=0;perimeter=centerPerimeter;snapToPoint=1;" vertex="1" parent="GglZPj0ahe2qBc4Vp5ky-1">
          <mxGeometry x="516.75" y="602" width="40" height="40" as="geometry" />
        </mxCell>
        <mxCell id="GglZPj0ahe2qBc4Vp5ky-37" value="" style="shape=waypoint;sketch=0;fillStyle=solid;size=6;pointerEvents=1;points=[];fillColor=none;resizable=0;rotatable=0;perimeter=centerPerimeter;snapToPoint=1;" vertex="1" parent="GglZPj0ahe2qBc4Vp5ky-1">
          <mxGeometry x="593.5" y="600" width="40" height="40" as="geometry" />
        </mxCell>
        <mxCell id="GglZPj0ahe2qBc4Vp5ky-38" value="Text" style="text;html=1;strokeColor=none;fillColor=none;align=center;verticalAlign=middle;whiteSpace=wrap;rounded=0;" vertex="1" parent="GglZPj0ahe2qBc4Vp5ky-1">
          <mxGeometry x="590" y="636" width="100" height="30" as="geometry" />
        </mxCell>
        <mxCell id="GglZPj0ahe2qBc4Vp5ky-39" value="Gas" style="text;html=1;strokeColor=none;fillColor=none;align=center;verticalAlign=middle;whiteSpace=wrap;rounded=0;" vertex="1" parent="GglZPj0ahe2qBc4Vp5ky-1">
          <mxGeometry x="590" y="606" width="100" height="30" as="geometry" />
        </mxCell>
        <mxCell id="GglZPj0ahe2qBc4Vp5ky-40" value="" style="shape=waypoint;sketch=0;fillStyle=solid;size=6;pointerEvents=1;points=[];fillColor=none;resizable=0;rotatable=0;perimeter=centerPerimeter;snapToPoint=1;" vertex="1" parent="GglZPj0ahe2qBc4Vp5ky-1">
          <mxGeometry x="516.75" y="633" width="40" height="40" as="geometry" />
        </mxCell>
        <mxCell id="GglZPj0ahe2qBc4Vp5ky-41" value="Text" style="text;html=1;strokeColor=none;fillColor=none;align=center;verticalAlign=middle;whiteSpace=wrap;rounded=0;" vertex="1" parent="GglZPj0ahe2qBc4Vp5ky-1">
          <mxGeometry x="516.75" y="633" width="100" height="30" as="geometry" />
        </mxCell>
        <mxCell id="GglZPj0ahe2qBc4Vp5ky-42" value="" style="shape=waypoint;sketch=0;fillStyle=solid;size=6;pointerEvents=1;points=[];fillColor=none;resizable=0;rotatable=0;perimeter=centerPerimeter;snapToPoint=1;" vertex="1" parent="GglZPj0ahe2qBc4Vp5ky-1">
          <mxGeometry x="590" y="633" width="40" height="40" as="geometry" />
        </mxCell>
        <mxCell id="GglZPj0ahe2qBc4Vp5ky-43" value="atencion al cliente" style="text;html=1;strokeColor=none;fillColor=none;align=center;verticalAlign=middle;whiteSpace=wrap;rounded=0;fontSize=10;" vertex="1" parent="GglZPj0ahe2qBc4Vp5ky-1">
          <mxGeometry x="61.75" y="1100" width="110" height="30" as="geometry" />
        </mxCell>
        <mxCell id="GglZPj0ahe2qBc4Vp5ky-44" value="terminos y condiciones" style="text;html=1;strokeColor=none;fillColor=none;align=center;verticalAlign=middle;whiteSpace=wrap;rounded=0;fontSize=10;" vertex="1" parent="GglZPj0ahe2qBc4Vp5ky-1">
          <mxGeometry x="245" y="1100" width="116.5" height="30" as="geometry" />
        </mxCell>
        <mxCell id="GglZPj0ahe2qBc4Vp5ky-45" value="ayuda" style="text;html=1;strokeColor=none;fillColor=none;align=center;verticalAlign=middle;whiteSpace=wrap;rounded=0;fontSize=10;" vertex="1" parent="GglZPj0ahe2qBc4Vp5ky-1">
          <mxGeometry x="443.75" y="1100" width="116.5" height="30" as="geometry" />
        </mxCell>
        <mxCell id="GglZPj0ahe2qBc4Vp5ky-46" value="&lt;span style=&quot;font-family: &amp;#34;raleway&amp;#34; , sans-serif ; font-size: 12px ; letter-spacing: 0.88px ; text-transform: uppercase ; background-color: rgb(255 , 255 , 255)&quot;&gt;COPYRIGHT Â© 2021&lt;/span&gt;" style="text;html=1;strokeColor=none;fillColor=none;align=center;verticalAlign=middle;whiteSpace=wrap;rounded=0;fontSize=10;" vertex="1" parent="GglZPj0ahe2qBc4Vp5ky-1">
          <mxGeometry x="260" y="1130" width="310" height="30" as="geometry" />
        </mxCell>
        <mxCell id="GglZPj0ahe2qBc4Vp5ky-47" value="" style="shape=waypoint;sketch=0;fillStyle=solid;size=6;pointerEvents=1;points=[];fillColor=none;resizable=0;rotatable=0;perimeter=centerPerimeter;snapToPoint=1;fontSize=10;fontColor=#000000;strokeWidth=1;" vertex="1" parent="GglZPj0ahe2qBc4Vp5ky-1">
          <mxGeometry x="363.25" y="820" width="40" height="40" as="geometry" />
        </mxCell>
        <mxCell id="GglZPj0ahe2qBc4Vp5ky-48" value="" style="shape=waypoint;sketch=0;fillStyle=solid;size=6;pointerEvents=1;points=[];fillColor=none;resizable=0;rotatable=0;perimeter=centerPerimeter;snapToPoint=1;fontSize=10;fontColor=#000000;strokeWidth=1;" vertex="1" parent="GglZPj0ahe2qBc4Vp5ky-1">
          <mxGeometry x="383.25" y="820" width="40" height="40" as="geometry" />
        </mxCell>
        <mxCell id="GglZPj0ahe2qBc4Vp5ky-49" value="" style="shape=waypoint;sketch=0;fillStyle=solid;size=6;pointerEvents=1;points=[];fillColor=none;resizable=0;rotatable=0;perimeter=centerPerimeter;snapToPoint=1;fontSize=10;fontColor=#000000;strokeWidth=1;" vertex="1" parent="GglZPj0ahe2qBc4Vp5ky-1">
          <mxGeometry x="403.75" y="820" width="40" height="40" as="geometry" />
        </mxCell>
        <mxCell id="GglZPj0ahe2qBc4Vp5ky-50" value="" style="shape=waypoint;sketch=0;fillStyle=solid;size=6;pointerEvents=1;points=[];fillColor=none;resizable=0;rotatable=0;perimeter=centerPerimeter;snapToPoint=1;fontSize=10;fontColor=#000000;strokeWidth=1;" vertex="1" parent="GglZPj0ahe2qBc4Vp5ky-1">
          <mxGeometry x="374.25" y="1030" width="40" height="40" as="geometry" />
        </mxCell>
        <mxCell id="GglZPj0ahe2qBc4Vp5ky-51" value="" style="shape=waypoint;sketch=0;fillStyle=solid;size=6;pointerEvents=1;points=[];fillColor=none;resizable=0;rotatable=0;perimeter=centerPerimeter;snapToPoint=1;fontSize=10;fontColor=#000000;strokeWidth=1;" vertex="1" parent="GglZPj0ahe2qBc4Vp5ky-1">
          <mxGeometry x="394.25" y="1030" width="40" height="40" as="geometry" />
        </mxCell>
        <mxCell id="GglZPj0ahe2qBc4Vp5ky-52" value="" style="shape=waypoint;sketch=0;fillStyle=solid;size=6;pointerEvents=1;points=[];fillColor=none;resizable=0;rotatable=0;perimeter=centerPerimeter;snapToPoint=1;fontSize=10;fontColor=#000000;strokeWidth=1;" vertex="1" parent="GglZPj0ahe2qBc4Vp5ky-1">
          <mxGeometry x="414.75" y="1030" width="40" height="40" as="geometry" />
        </mxCell>
        <mxCell id="GglZPj0ahe2qBc4Vp5ky-53" value="" style="dashed=0;outlineConnect=0;html=1;align=center;labelPosition=center;verticalLabelPosition=bottom;verticalAlign=top;shape=mxgraph.weblogos.youtube_2;fillColor=#FF2626;gradientColor=#B5171F;fontSize=10;fontColor=#000000;strokeWidth=1;" vertex="1" parent="GglZPj0ahe2qBc4Vp5ky-1">
          <mxGeometry x="780" y="114.9" width="16.4" height="12.6" as="geometry" />
        </mxCell>
        <mxCell id="GglZPj0ahe2qBc4Vp5ky-54" value="" style="dashed=0;outlineConnect=0;html=1;align=center;labelPosition=center;verticalLabelPosition=bottom;verticalAlign=top;shape=mxgraph.weblogos.twitter;fillColor=#1DA1F2;strokeColor=none;fontSize=10;fontColor=#000000;" vertex="1" parent="GglZPj0ahe2qBc4Vp5ky-1">
          <mxGeometry x="750" y="111.30000000000001" width="20" height="20" as="geometry" />
        </mxCell>
        <mxCell id="GglZPj0ahe2qBc4Vp5ky-55" value="" style="dashed=0;outlineConnect=0;html=1;align=center;labelPosition=center;verticalLabelPosition=bottom;verticalAlign=top;shape=mxgraph.weblogos.instagram;fillColor=#6FC0E4;gradientColor=#1E305B;fontSize=10;fontColor=#000000;strokeWidth=1;" vertex="1" parent="GglZPj0ahe2qBc4Vp5ky-1">
          <mxGeometry x="717.8" y="110.20000000000002" width="22.2" height="22.2" as="geometry" />
        </mxCell>
        <mxCell id="GglZPj0ahe2qBc4Vp5ky-56" value="" style="dashed=0;outlineConnect=0;html=1;align=center;labelPosition=center;verticalLabelPosition=bottom;verticalAlign=top;shape=mxgraph.webicons.facebook;fillColor=#6294E4;gradientColor=#1A2665;fontSize=10;fontColor=#000000;strokeWidth=1;" vertex="1" parent="GglZPj0ahe2qBc4Vp5ky-1">
          <mxGeometry x="680.5500000000001" y="110.00000000000003" width="22.4" height="22.4" as="geometry" />
        </mxCell>
        <mxCell id="GglZPj0ahe2qBc4Vp5ky-57" value="" style="dashed=0;outlineConnect=0;html=1;align=center;labelPosition=center;verticalLabelPosition=bottom;verticalAlign=top;shape=mxgraph.webicons.gmail;gradientColor=#DFDEDE;fontSize=10;fontColor=#000000;strokeWidth=1;" vertex="1" parent="GglZPj0ahe2qBc4Vp5ky-1">
          <mxGeometry x="56.10000000000001" y="75" width="22.4" height="22.4" as="geometry" />
        </mxCell>
        <mxCell id="GglZPj0ahe2qBc4Vp5ky-58" value="contacto" style="text;html=1;strokeColor=none;fillColor=none;align=center;verticalAlign=middle;whiteSpace=wrap;rounded=0;fontSize=10;" vertex="1" parent="GglZPj0ahe2qBc4Vp5ky-1">
          <mxGeometry x="633.5" y="1100" width="116.5" height="30" as="geometry" />
        </mxCell>
        <mxCell id="GglZPj0ahe2qBc4Vp5ky-59" value="" style="dashed=0;outlineConnect=0;html=1;align=center;labelPosition=center;verticalLabelPosition=bottom;verticalAlign=top;shape=mxgraph.webicons.whatsapp;fillColor=#4FE238;gradientColor=#138709;fontSize=10;fontColor=#000000;strokeWidth=1;" vertex="1" parent="GglZPj0ahe2qBc4Vp5ky-1">
          <mxGeometry x="97.60000000000002" y="75.00000000000003" width="22.4" height="22.4" as="geometry" />
        </mxCell>
        <mxCell id="GglZPj0ahe2qBc4Vp5ky-60" value="" style="shape=internalStorage;whiteSpace=wrap;html=1;backgroundOutline=1;" vertex="1" parent="GglZPj0ahe2qBc4Vp5ky-1">
          <mxGeometry x="41" y="201" width="79" height="79" as="geometry" />
        </mxCell>
        <mxCell id="u12zugl3cLdgmTnuRFCt-0" value="&lt;h1&gt;&lt;font style=&quot;font-size: 26px&quot;&gt;Nombre del Prof.&lt;/font&gt;&lt;/h1&gt;&lt;p style=&quot;font-size: 15px&quot;&gt;&lt;font style=&quot;font-size: 15px&quot;&gt;edad:&amp;nbsp; &amp;nbsp; &amp;nbsp; &amp;nbsp; &amp;nbsp; &amp;nbsp; &amp;nbsp; &amp;nbsp; &amp;nbsp; &amp;nbsp; &amp;nbsp; &amp;nbsp; &amp;nbsp; &amp;nbsp; &amp;nbsp; &amp;nbsp; &amp;nbsp; &amp;nbsp; &amp;nbsp; &amp;nbsp; &amp;nbsp; &amp;nbsp; &amp;nbsp; &amp;nbsp;&lt;/font&gt;&lt;span&gt;aÃ±os experiencia:&lt;/span&gt;&lt;/p&gt;&lt;p style=&quot;font-size: 15px&quot;&gt;&lt;font style=&quot;font-size: 15px&quot;&gt;matricula: si/no&amp;nbsp; &amp;nbsp; &amp;nbsp; &amp;nbsp; &amp;nbsp; &amp;nbsp; &amp;nbsp; &amp;nbsp; &amp;nbsp; &amp;nbsp; &amp;nbsp; &amp;nbsp; &amp;nbsp; &amp;nbsp; &amp;nbsp; &amp;nbsp; &amp;nbsp;&lt;/font&gt;&lt;span&gt;zona:&lt;/span&gt;&lt;/p&gt;&lt;p style=&quot;font-size: 15px&quot;&gt;Trabaja en equipo:si/no/depende&amp;nbsp; &amp;nbsp; &amp;nbsp;lleva sus herramientas: si/no&lt;/p&gt;&lt;p&gt;&lt;br&gt;&lt;/p&gt;" style="text;html=1;strokeColor=none;fillColor=none;spacing=5;spacingTop=-20;whiteSpace=wrap;overflow=hidden;rounded=0;fontSize=19;fontColor=#000000;" vertex="1" parent="GglZPj0ahe2qBc4Vp5ky-1">
          <mxGeometry x="144.88" y="170" width="476.75" height="170" as="geometry" />
        </mxCell>
        <mxCell id="u12zugl3cLdgmTnuRFCt-1" value="" style="verticalLabelPosition=bottom;verticalAlign=top;html=1;strokeWidth=2;shape=mxgraph.arrows2.arrow;dy=0.6;dx=40;notch=0;fontSize=13;fontColor=#000000;rotation=90;" vertex="1" parent="GglZPj0ahe2qBc4Vp5ky-1">
          <mxGeometry x="603.5" y="260" width="20" height="20" as="geometry" />
        </mxCell>
        <mxCell id="u12zugl3cLdgmTnuRFCt-2" value="desplegable info&#xa;del prof" style="text;strokeColor=none;fillColor=none;spacingLeft=4;spacingRight=4;overflow=hidden;rotatable=0;points=[[0,0.5],[1,0.5]];portConstraint=eastwest;fontSize=12;fontColor=#000000;" vertex="1" parent="GglZPj0ahe2qBc4Vp5ky-1">
          <mxGeometry x="540" y="270" width="100" height="45" as="geometry" />
        </mxCell>
        <mxCell id="WjlW8FMWYp7QCzyy215b-0" value="" style="verticalLabelPosition=bottom;verticalAlign=top;html=1;shape=mxgraph.basic.star;fontSize=16;fontColor=#000000;strokeWidth=1;" vertex="1" parent="GglZPj0ahe2qBc4Vp5ky-1">
          <mxGeometry x="395.25" y="203" width="13.25" height="15" as="geometry" />
        </mxCell>
        <mxCell id="WjlW8FMWYp7QCzyy215b-1" value="" style="verticalLabelPosition=bottom;verticalAlign=top;html=1;shape=mxgraph.basic.star;fontSize=16;fontColor=#000000;strokeWidth=1;" vertex="1" parent="GglZPj0ahe2qBc4Vp5ky-1">
          <mxGeometry x="417.72" y="203" width="13.25" height="15" as="geometry" />
        </mxCell>
        <mxCell id="WjlW8FMWYp7QCzyy215b-2" value="" style="verticalLabelPosition=bottom;verticalAlign=top;html=1;shape=mxgraph.basic.star;fontSize=16;fontColor=#000000;strokeWidth=1;" vertex="1" parent="GglZPj0ahe2qBc4Vp5ky-1">
          <mxGeometry x="442" y="203" width="13.25" height="15" as="geometry" />
        </mxCell>
        <mxCell id="WjlW8FMWYp7QCzyy215b-3" value="" style="verticalLabelPosition=bottom;verticalAlign=top;html=1;shape=mxgraph.basic.star;fontSize=16;fontColor=#000000;strokeWidth=1;" vertex="1" parent="GglZPj0ahe2qBc4Vp5ky-1">
          <mxGeometry x="464.47" y="203" width="13.25" height="15" as="geometry" />
        </mxCell>
        <mxCell id="WjlW8FMWYp7QCzyy215b-4" value="" style="verticalLabelPosition=bottom;verticalAlign=top;html=1;shape=mxgraph.basic.star;fontSize=16;fontColor=#000000;strokeWidth=1;" vertex="1" parent="GglZPj0ahe2qBc4Vp5ky-1">
          <mxGeometry x="487.6" y="203" width="13.25" height="15" as="geometry" />
        </mxCell>
        <mxCell id="WjlW8FMWYp7QCzyy215b-5" value="" style="verticalLabelPosition=bottom;verticalAlign=top;html=1;shape=mxgraph.basic.star;fontSize=16;fontColor=#000000;strokeWidth=1;" vertex="1" parent="GglZPj0ahe2qBc4Vp5ky-1">
          <mxGeometry x="394.25" y="224" width="13.25" height="15" as="geometry" />
        </mxCell>
        <mxCell id="WjlW8FMWYp7QCzyy215b-6" value="" style="verticalLabelPosition=bottom;verticalAlign=top;html=1;shape=mxgraph.basic.star;fontSize=16;fontColor=#000000;strokeWidth=1;" vertex="1" parent="GglZPj0ahe2qBc4Vp5ky-1">
          <mxGeometry x="416.72" y="224" width="13.25" height="15" as="geometry" />
        </mxCell>
        <mxCell id="WjlW8FMWYp7QCzyy215b-7" value="" style="verticalLabelPosition=bottom;verticalAlign=top;html=1;shape=mxgraph.basic.star;fontSize=16;fontColor=#000000;strokeWidth=1;" vertex="1" parent="GglZPj0ahe2qBc4Vp5ky-1">
          <mxGeometry x="441" y="224" width="13.25" height="15" as="geometry" />
        </mxCell>
        <mxCell id="WjlW8FMWYp7QCzyy215b-8" value="" style="verticalLabelPosition=bottom;verticalAlign=top;html=1;shape=mxgraph.basic.star;fontSize=16;fontColor=#000000;strokeWidth=1;" vertex="1" parent="GglZPj0ahe2qBc4Vp5ky-1">
          <mxGeometry x="463.47" y="224" width="13.25" height="15" as="geometry" />
        </mxCell>
        <mxCell id="WjlW8FMWYp7QCzyy215b-9" value="" style="verticalLabelPosition=bottom;verticalAlign=top;html=1;shape=mxgraph.basic.star;fontSize=16;fontColor=#000000;strokeWidth=1;" vertex="1" parent="GglZPj0ahe2qBc4Vp5ky-1">
          <mxGeometry x="486.6" y="224" width="13.25" height="15" as="geometry" />
        </mxCell>
        <mxCell id="WjlW8FMWYp7QCzyy215b-10" value="" style="verticalLabelPosition=bottom;verticalAlign=top;html=1;shape=mxgraph.basic.star;fontSize=16;fontColor=#000000;strokeWidth=1;" vertex="1" parent="GglZPj0ahe2qBc4Vp5ky-1">
          <mxGeometry x="394.25" y="180" width="13.25" height="15" as="geometry" />
        </mxCell>
        <mxCell id="WjlW8FMWYp7QCzyy215b-11" value="" style="verticalLabelPosition=bottom;verticalAlign=top;html=1;shape=mxgraph.basic.star;fontSize=16;fontColor=#000000;strokeWidth=1;" vertex="1" parent="GglZPj0ahe2qBc4Vp5ky-1">
          <mxGeometry x="416.72" y="180" width="13.25" height="15" as="geometry" />
        </mxCell>
        <mxCell id="WjlW8FMWYp7QCzyy215b-12" value="" style="verticalLabelPosition=bottom;verticalAlign=top;html=1;shape=mxgraph.basic.star;fontSize=16;fontColor=#000000;strokeWidth=1;" vertex="1" parent="GglZPj0ahe2qBc4Vp5ky-1">
          <mxGeometry x="441" y="180" width="13.25" height="15" as="geometry" />
        </mxCell>
        <mxCell id="WjlW8FMWYp7QCzyy215b-13" value="" style="verticalLabelPosition=bottom;verticalAlign=top;html=1;shape=mxgraph.basic.star;fontSize=16;fontColor=#000000;strokeWidth=1;" vertex="1" parent="GglZPj0ahe2qBc4Vp5ky-1">
          <mxGeometry x="463.47" y="180" width="13.25" height="15" as="geometry" />
        </mxCell>
        <mxCell id="WjlW8FMWYp7QCzyy215b-14" value="" style="verticalLabelPosition=bottom;verticalAlign=top;html=1;shape=mxgraph.basic.star;fontSize=16;fontColor=#000000;strokeWidth=1;" vertex="1" parent="GglZPj0ahe2qBc4Vp5ky-1">
          <mxGeometry x="486.6" y="180" width="13.25" height="15" as="geometry" />
        </mxCell>
        <mxCell id="WjlW8FMWYp7QCzyy215b-15" value="&lt;font style=&quot;font-size: 13px&quot;&gt;Rapidez&lt;/font&gt;" style="text;html=1;strokeColor=none;fillColor=none;align=center;verticalAlign=middle;whiteSpace=wrap;rounded=0;fontSize=16;fontColor=#000000;" vertex="1" parent="GglZPj0ahe2qBc4Vp5ky-1">
          <mxGeometry x="518.65" y="218" width="60" height="30" as="geometry" />
        </mxCell>
        <mxCell id="WjlW8FMWYp7QCzyy215b-16" value="&lt;font style=&quot;font-size: 13px&quot;&gt;Precio&lt;/font&gt;" style="text;html=1;strokeColor=none;fillColor=none;align=center;verticalAlign=middle;whiteSpace=wrap;rounded=0;fontSize=16;fontColor=#000000;" vertex="1" parent="GglZPj0ahe2qBc4Vp5ky-1">
          <mxGeometry x="512.75" y="194" width="60" height="30" as="geometry" />
        </mxCell>
        <mxCell id="SuxhvMxeJJD-03yDfDz4-0" value="&lt;font style=&quot;font-size: 13px&quot;&gt;Satisfaccion&lt;/font&gt;" style="text;html=1;strokeColor=none;fillColor=none;align=center;verticalAlign=middle;whiteSpace=wrap;rounded=0;fontSize=16;fontColor=#000000;" vertex="1" parent="GglZPj0ahe2qBc4Vp5ky-1">
          <mxGeometry x="527.75" y="170" width="60" height="30" as="geometry" />
        </mxCell>
        <mxCell id="SuxhvMxeJJD-03yDfDz4-1" value="datos de contacto del&amp;nbsp;&lt;br&gt;profesional" style="text;html=1;strokeColor=none;fillColor=none;align=center;verticalAlign=middle;whiteSpace=wrap;rounded=0;fontSize=13;fontColor=#000000;" vertex="1" parent="GglZPj0ahe2qBc4Vp5ky-1">
          <mxGeometry x="648.9" y="224" width="140" height="52" as="geometry" />
        </mxCell>
        <mxCell id="SuxhvMxeJJD-03yDfDz4-3" value="" style="whiteSpace=wrap;html=1;aspect=fixed;fontSize=13;fontColor=#000000;strokeWidth=1;" vertex="1" parent="GglZPj0ahe2qBc4Vp5ky-1">
          <mxGeometry x="630.8" y="364" width="162.2" height="162.2" as="geometry" />
        </mxCell>
        <mxCell id="SuxhvMxeJJD-03yDfDz4-4" value="" style="shape=internalStorage;whiteSpace=wrap;html=1;backgroundOutline=1;" vertex="1" parent="GglZPj0ahe2qBc4Vp5ky-1">
          <mxGeometry x="34" y="391" width="79" height="79" as="geometry" />
        </mxCell>
        <mxCell id="SuxhvMxeJJD-03yDfDz4-5" value="&lt;h1&gt;&lt;font style=&quot;font-size: 26px&quot;&gt;Nombre del Prof.&lt;/font&gt;&lt;/h1&gt;&lt;p style=&quot;font-size: 15px&quot;&gt;&lt;font style=&quot;font-size: 15px&quot;&gt;edad:&amp;nbsp; &amp;nbsp; &amp;nbsp; &amp;nbsp; &amp;nbsp; &amp;nbsp; &amp;nbsp; &amp;nbsp; &amp;nbsp; &amp;nbsp; &amp;nbsp; &amp;nbsp; &amp;nbsp; &amp;nbsp; &amp;nbsp; &amp;nbsp; &amp;nbsp; &amp;nbsp; &amp;nbsp; &amp;nbsp; &amp;nbsp; &amp;nbsp; &amp;nbsp; &amp;nbsp;&lt;/font&gt;&lt;span&gt;aÃ±os experiencia:&lt;/span&gt;&lt;/p&gt;&lt;p style=&quot;font-size: 15px&quot;&gt;&lt;font style=&quot;font-size: 15px&quot;&gt;matricula: si/no&amp;nbsp; &amp;nbsp; &amp;nbsp; &amp;nbsp; &amp;nbsp; &amp;nbsp; &amp;nbsp; &amp;nbsp; &amp;nbsp; &amp;nbsp; &amp;nbsp; &amp;nbsp; &amp;nbsp; &amp;nbsp; &amp;nbsp; &amp;nbsp; &amp;nbsp;&lt;/font&gt;&lt;span&gt;zona:&lt;/span&gt;&lt;/p&gt;&lt;p style=&quot;font-size: 15px&quot;&gt;Trabaja en equipo:si/no/depende&amp;nbsp; &amp;nbsp; &amp;nbsp;lleva sus herramientas: si/no&lt;/p&gt;&lt;p&gt;&lt;br&gt;&lt;/p&gt;" style="text;html=1;strokeColor=none;fillColor=none;spacing=5;spacingTop=-20;whiteSpace=wrap;overflow=hidden;rounded=0;fontSize=19;fontColor=#000000;" vertex="1" parent="GglZPj0ahe2qBc4Vp5ky-1">
          <mxGeometry x="137.88" y="360" width="476.75" height="170" as="geometry" />
        </mxCell>
        <mxCell id="SuxhvMxeJJD-03yDfDz4-6" value="" style="verticalLabelPosition=bottom;verticalAlign=top;html=1;strokeWidth=2;shape=mxgraph.arrows2.arrow;dy=0.6;dx=40;notch=0;fontSize=13;fontColor=#000000;rotation=90;" vertex="1" parent="GglZPj0ahe2qBc4Vp5ky-1">
          <mxGeometry x="596.5" y="450" width="20" height="20" as="geometry" />
        </mxCell>
        <mxCell id="SuxhvMxeJJD-03yDfDz4-7" value="desplegable info&#xa;del prof" style="text;strokeColor=none;fillColor=none;spacingLeft=4;spacingRight=4;overflow=hidden;rotatable=0;points=[[0,0.5],[1,0.5]];portConstraint=eastwest;fontSize=12;fontColor=#000000;" vertex="1" parent="GglZPj0ahe2qBc4Vp5ky-1">
          <mxGeometry x="533" y="460" width="100" height="45" as="geometry" />
        </mxCell>
        <mxCell id="SuxhvMxeJJD-03yDfDz4-8" value="" style="verticalLabelPosition=bottom;verticalAlign=top;html=1;shape=mxgraph.basic.star;fontSize=16;fontColor=#000000;strokeWidth=1;" vertex="1" parent="GglZPj0ahe2qBc4Vp5ky-1">
          <mxGeometry x="388.25" y="393" width="13.25" height="15" as="geometry" />
        </mxCell>
        <mxCell id="SuxhvMxeJJD-03yDfDz4-9" value="" style="verticalLabelPosition=bottom;verticalAlign=top;html=1;shape=mxgraph.basic.star;fontSize=16;fontColor=#000000;strokeWidth=1;" vertex="1" parent="GglZPj0ahe2qBc4Vp5ky-1">
          <mxGeometry x="410.72" y="393" width="13.25" height="15" as="geometry" />
        </mxCell>
        <mxCell id="SuxhvMxeJJD-03yDfDz4-10" value="" style="verticalLabelPosition=bottom;verticalAlign=top;html=1;shape=mxgraph.basic.star;fontSize=16;fontColor=#000000;strokeWidth=1;" vertex="1" parent="GglZPj0ahe2qBc4Vp5ky-1">
          <mxGeometry x="435" y="393" width="13.25" height="15" as="geometry" />
        </mxCell>
        <mxCell id="SuxhvMxeJJD-03yDfDz4-11" value="" style="verticalLabelPosition=bottom;verticalAlign=top;html=1;shape=mxgraph.basic.star;fontSize=16;fontColor=#000000;strokeWidth=1;" vertex="1" parent="GglZPj0ahe2qBc4Vp5ky-1">
          <mxGeometry x="457.47" y="393" width="13.25" height="15" as="geometry" />
        </mxCell>
        <mxCell id="SuxhvMxeJJD-03yDfDz4-12" value="" style="verticalLabelPosition=bottom;verticalAlign=top;html=1;shape=mxgraph.basic.star;fontSize=16;fontColor=#000000;strokeWidth=1;" vertex="1" parent="GglZPj0ahe2qBc4Vp5ky-1">
          <mxGeometry x="480.6" y="393" width="13.25" height="15" as="geometry" />
        </mxCell>
        <mxCell id="SuxhvMxeJJD-03yDfDz4-13" value="" style="verticalLabelPosition=bottom;verticalAlign=top;html=1;shape=mxgraph.basic.star;fontSize=16;fontColor=#000000;strokeWidth=1;" vertex="1" parent="GglZPj0ahe2qBc4Vp5ky-1">
          <mxGeometry x="387.25" y="414" width="13.25" height="15" as="geometry" />
        </mxCell>
        <mxCell id="SuxhvMxeJJD-03yDfDz4-14" value="" style="verticalLabelPosition=bottom;verticalAlign=top;html=1;shape=mxgraph.basic.star;fontSize=16;fontColor=#000000;strokeWidth=1;" vertex="1" parent="GglZPj0ahe2qBc4Vp5ky-1">
          <mxGeometry x="409.72" y="414" width="13.25" height="15" as="geometry" />
        </mxCell>
        <mxCell id="SuxhvMxeJJD-03yDfDz4-15" value="" style="verticalLabelPosition=bottom;verticalAlign=top;html=1;shape=mxgraph.basic.star;fontSize=16;fontColor=#000000;strokeWidth=1;" vertex="1" parent="GglZPj0ahe2qBc4Vp5ky-1">
          <mxGeometry x="434" y="414" width="13.25" height="15" as="geometry" />
        </mxCell>
        <mxCell id="SuxhvMxeJJD-03yDfDz4-16" value="" style="verticalLabelPosition=bottom;verticalAlign=top;html=1;shape=mxgraph.basic.star;fontSize=16;fontColor=#000000;strokeWidth=1;" vertex="1" parent="GglZPj0ahe2qBc4Vp5ky-1">
          <mxGeometry x="456.47" y="414" width="13.25" height="15" as="geometry" />
        </mxCell>
        <mxCell id="SuxhvMxeJJD-03yDfDz4-17" value="" style="verticalLabelPosition=bottom;verticalAlign=top;html=1;shape=mxgraph.basic.star;fontSize=16;fontColor=#000000;strokeWidth=1;" vertex="1" parent="GglZPj0ahe2qBc4Vp5ky-1">
          <mxGeometry x="479.6" y="414" width="13.25" height="15" as="geometry" />
        </mxCell>
        <mxCell id="SuxhvMxeJJD-03yDfDz4-18" value="" style="verticalLabelPosition=bottom;verticalAlign=top;html=1;shape=mxgraph.basic.star;fontSize=16;fontColor=#000000;strokeWidth=1;" vertex="1" parent="GglZPj0ahe2qBc4Vp5ky-1">
          <mxGeometry x="387.25" y="370" width="13.25" height="15" as="geometry" />
        </mxCell>
        <mxCell id="SuxhvMxeJJD-03yDfDz4-19" value="" style="verticalLabelPosition=bottom;verticalAlign=top;html=1;shape=mxgraph.basic.star;fontSize=16;fontColor=#000000;strokeWidth=1;" vertex="1" parent="GglZPj0ahe2qBc4Vp5ky-1">
          <mxGeometry x="409.72" y="370" width="13.25" height="15" as="geometry" />
        </mxCell>
        <mxCell id="SuxhvMxeJJD-03yDfDz4-20" value="" style="verticalLabelPosition=bottom;verticalAlign=top;html=1;shape=mxgraph.basic.star;fontSize=16;fontColor=#000000;strokeWidth=1;" vertex="1" parent="GglZPj0ahe2qBc4Vp5ky-1">
          <mxGeometry x="434" y="370" width="13.25" height="15" as="geometry" />
        </mxCell>
        <mxCell id="SuxhvMxeJJD-03yDfDz4-21" value="" style="verticalLabelPosition=bottom;verticalAlign=top;html=1;shape=mxgraph.basic.star;fontSize=16;fontColor=#000000;strokeWidth=1;" vertex="1" parent="GglZPj0ahe2qBc4Vp5ky-1">
          <mxGeometry x="456.47" y="370" width="13.25" height="15" as="geometry" />
        </mxCell>
        <mxCell id="SuxhvMxeJJD-03yDfDz4-22" value="" style="verticalLabelPosition=bottom;verticalAlign=top;html=1;shape=mxgraph.basic.star;fontSize=16;fontColor=#000000;strokeWidth=1;" vertex="1" parent="GglZPj0ahe2qBc4Vp5ky-1">
          <mxGeometry x="479.6" y="370" width="13.25" height="15" as="geometry" />
        </mxCell>
        <mxCell id="SuxhvMxeJJD-03yDfDz4-23" value="&lt;font style=&quot;font-size: 13px&quot;&gt;Rapidez&lt;/font&gt;" style="text;html=1;strokeColor=none;fillColor=none;align=center;verticalAlign=middle;whiteSpace=wrap;rounded=0;fontSize=16;fontColor=#000000;" vertex="1" parent="GglZPj0ahe2qBc4Vp5ky-1">
          <mxGeometry x="511.65" y="408" width="60" height="30" as="geometry" />
        </mxCell>
        <mxCell id="SuxhvMxeJJD-03yDfDz4-24" value="&lt;font style=&quot;font-size: 13px&quot;&gt;Precio&lt;/font&gt;" style="text;html=1;strokeColor=none;fillColor=none;align=center;verticalAlign=middle;whiteSpace=wrap;rounded=0;fontSize=16;fontColor=#000000;" vertex="1" parent="GglZPj0ahe2qBc4Vp5ky-1">
          <mxGeometry x="505.75" y="384" width="60" height="30" as="geometry" />
        </mxCell>
        <mxCell id="SuxhvMxeJJD-03yDfDz4-25" value="&lt;font style=&quot;font-size: 13px&quot;&gt;Satisfaccion&lt;/font&gt;" style="text;html=1;strokeColor=none;fillColor=none;align=center;verticalAlign=middle;whiteSpace=wrap;rounded=0;fontSize=16;fontColor=#000000;" vertex="1" parent="GglZPj0ahe2qBc4Vp5ky-1">
          <mxGeometry x="520.75" y="360" width="60" height="30" as="geometry" />
        </mxCell>
        <mxCell id="SuxhvMxeJJD-03yDfDz4-26" value="datos de contacto del&amp;nbsp;&lt;br&gt;profesional" style="text;html=1;strokeColor=none;fillColor=none;align=center;verticalAlign=middle;whiteSpace=wrap;rounded=0;fontSize=13;fontColor=#000000;" vertex="1" parent="GglZPj0ahe2qBc4Vp5ky-1">
          <mxGeometry x="641.9" y="414" width="140" height="52" as="geometry" />
        </mxCell>
      </root>
    </mxGraphModel>
  </diagram>
</mxfile>
